<svg width="122" height="54" viewBox="0 0 122 54" fill="none" xmlns="http://www.w3.org/2000/svg">
<path d="M117.017 19.1091C117.643 19.1091 118.262 19.1015 118.882 19.1167C118.989 19.1167 119.126 19.1546 119.187 19.2228C120.143 20.3977 121.098 21.5726 122.092 22.8157C116.902 22.8157 111.781 22.8157 106.622 22.8157C106.622 31.3205 106.622 39.7722 106.622 48.2467C103.297 48.2467 100.011 48.2467 96.6935 48.2467C96.6935 39.7874 96.6935 31.3281 96.6935 22.846C64.5693 22.846 32.4757 22.846 0.328613 22.846C0.389758 22.7323 0.420331 22.6565 0.46619 22.5959C1.25343 21.4437 2.04068 20.2916 2.81264 19.1243C2.93493 18.9423 3.0725 18.8893 3.27887 18.8893C5.90047 18.8969 8.52207 18.8893 11.136 18.8893C18.848 18.8893 26.5599 18.8893 34.2719 18.8893C34.5394 18.8893 34.6922 18.8665 34.7916 18.5482C35.0667 17.6992 36.3126 17.4339 37.0387 18.0479C37.2145 18.1995 37.3597 18.2222 37.5737 18.1616C41.8691 17.0322 46.1646 15.9028 50.46 14.7885C50.6817 14.7278 50.8116 14.6369 50.911 14.4095C51.1861 13.7728 51.9963 13.5757 52.5466 14.0077C52.7224 14.1442 52.86 14.1593 53.0587 14.1063C58.0726 12.7874 63.0789 11.476 68.0928 10.1647C68.2762 10.1192 68.3909 10.051 68.4597 9.84632C68.7043 9.12622 69.5909 8.88366 70.1794 9.37636C70.3552 9.52038 70.4851 9.53554 70.6915 9.48248C75.713 8.16356 80.7346 6.84464 85.7561 5.53329C85.9166 5.48781 86.016 5.41959 86.0771 5.25283C86.3523 4.52515 87.1854 4.29775 87.7968 4.79045C87.9497 4.91173 88.072 4.92689 88.2554 4.87383C92.0082 3.88843 95.761 2.91061 99.5138 1.93279C99.7049 1.87973 99.8424 1.82667 99.896 1.58411C100.087 0.697247 100.92 0.128747 101.845 0.234867C102.693 0.333407 103.397 1.11415 103.381 1.98585C103.374 2.25873 103.442 2.45581 103.611 2.66805C105.537 5.07849 107.463 7.5041 109.381 9.9297C111.345 12.4084 113.317 14.887 115.282 17.3657C115.412 17.5325 115.549 17.6462 115.786 17.6841C116.505 17.8053 116.887 18.2677 117.017 19.1091ZM37.8336 18.8059C37.8336 18.8362 37.8336 18.859 37.8412 18.8893C37.9864 18.8893 38.1316 18.8893 38.2845 18.8893C57.2854 18.8893 76.2786 18.8893 95.2795 18.8893C95.3636 18.8893 95.4553 18.8817 95.5317 18.8893C95.7381 18.9196 95.8145 18.8135 95.8604 18.6391C95.9827 18.1919 96.1355 17.7523 96.2349 17.3051C96.3037 17.017 96.4107 16.8503 96.7393 16.9109C96.9686 16.9564 97.0603 16.8578 97.1138 16.6153C97.817 13.4089 98.5355 10.2102 99.2539 7.0114C99.5367 5.73037 99.8272 4.44935 100.11 3.16075C100.194 2.78175 99.9877 2.58467 99.6132 2.68321C95.8909 3.65345 92.1687 4.62369 88.4542 5.59394C88.2936 5.63941 88.2172 5.6849 88.179 5.86682C88.0949 6.26856 87.8274 6.5566 87.43 6.65514C87.0325 6.75368 86.6351 6.7082 86.3446 6.37468C86.1994 6.20792 86.0695 6.20792 85.8784 6.2534C85.0224 6.48838 84.1587 6.7082 83.295 6.92802C79.1524 8.01196 75.0099 9.08832 70.8673 10.1647C70.7068 10.2102 70.5998 10.2708 70.5462 10.4527C70.3017 11.3244 69.3386 11.5746 68.6966 10.9303C68.5743 10.8014 68.475 10.7938 68.3068 10.8393C66.7476 11.2486 65.1884 11.6504 63.6368 12.0597C60.1745 12.9617 56.7121 13.8713 53.2422 14.7733C53.0816 14.8188 52.9899 14.8643 52.9594 15.0538C52.8982 15.4934 52.6231 15.7815 52.2027 15.9028C51.79 16.024 51.3849 15.9407 51.0944 15.5996C50.9492 15.4252 50.8269 15.3949 50.6053 15.4555C47.8537 16.1832 45.0946 16.9033 42.3354 17.6234C40.8373 18.0252 39.3393 18.4117 37.8336 18.8059ZM114.112 19.1015C114.028 18.8817 113.998 18.6998 113.898 18.5709C112.263 16.4561 110.612 14.3413 108.961 12.234C108.838 12.0748 108.632 11.9763 108.502 11.8171C108.319 11.6125 108.158 11.3775 108.005 11.1501C107.929 11.044 107.914 10.8924 107.837 10.7938C106.561 9.14896 105.277 7.5041 104 5.85924C103.603 5.35137 103.205 4.84351 102.808 4.34323C102.785 4.46451 102.808 4.56305 102.831 4.66159C103.947 8.61836 105.07 12.5675 106.186 16.5319C106.27 16.8199 106.37 16.9791 106.691 16.9185C106.935 16.873 107.042 16.9867 107.111 17.2217C107.302 17.8584 107.531 18.48 107.745 19.1091C109.832 19.1015 111.911 19.1015 114.112 19.1015ZM105.552 16.8957C105.177 15.5162 104.811 14.1821 104.436 12.8025C102.548 14.1669 100.706 15.501 98.8565 16.8351C98.8641 16.8503 98.8794 16.873 98.8871 16.8882C101.088 16.8957 103.29 16.8957 105.552 16.8957ZM98.1151 16.4258C99.9953 15.1068 101.791 13.841 103.595 12.5675C102.074 12.5145 100.591 12.5145 99.1011 12.5069C98.91 12.5069 98.8794 12.6054 98.8488 12.757C98.7113 13.4544 98.5584 14.1593 98.4208 14.8567C98.3215 15.3494 98.2297 15.8421 98.1151 16.4258ZM103.343 11.6883C103.358 11.6579 103.381 11.6352 103.397 11.6049C102.189 10.4603 100.989 9.3233 99.7889 8.1863C99.5673 9.30056 99.3227 10.483 99.0781 11.6883C100.538 11.6883 101.937 11.6883 103.343 11.6883ZM100.584 7.79214C101.662 8.92156 102.823 10.1344 103.985 11.3472C103.779 10.3769 103.526 9.44458 103.274 8.51224C103.083 7.79214 103.083 7.79214 102.334 7.79214C101.684 7.79214 101.042 7.79214 100.584 7.79214ZM109.465 11.855C111.116 13.9395 112.759 16.0165 114.41 18.101C114.548 17.9948 114.663 17.9039 114.792 17.8053C113.126 15.7284 111.475 13.6591 109.801 11.5746C109.687 11.6731 109.58 11.7565 109.465 11.855ZM100.309 6.9735C101.172 6.9735 101.99 6.9735 102.846 6.9735C102.594 6.04874 102.349 5.15429 102.105 4.26743C102.074 4.26743 102.044 4.25985 102.013 4.25985C101.455 5.16187 100.89 6.05632 100.309 6.9735ZM108.571 10.0207C106.714 7.70118 104.864 5.39685 103.014 3.08495C102.907 3.19107 102.831 3.25929 102.739 3.35025C104.574 5.66973 106.4 7.97406 108.227 10.2784C108.342 10.1874 108.441 10.1116 108.571 10.0207ZM100.301 5.70005C100.324 5.70763 100.355 5.71521 100.377 5.73037C100.79 5.08607 101.203 4.44935 101.616 3.79747C101.302 3.71409 101.019 3.64587 100.729 3.56249C100.584 4.28259 100.439 4.98753 100.301 5.70005Z" fill="white"/>
<path d="M45.7288 35.3457C46.3402 36.0052 46.9287 36.6419 47.5096 37.2786C51.4458 41.5537 55.3821 45.8213 59.3106 50.104C59.4864 50.2935 59.6622 50.3617 59.9144 50.3617C80.4363 50.3541 100.958 50.3541 121.48 50.3541C121.618 50.3541 121.748 50.3541 121.954 50.3541C121.656 50.7331 121.404 51.0666 121.144 51.3926C120.54 52.1582 119.928 52.9162 119.34 53.6893C119.187 53.8864 119.027 53.9546 118.782 53.9546C104.138 53.9546 89.4934 53.9546 74.8492 53.9622C67.2672 53.9698 59.6851 53.9925 52.1031 54.0077C51.8891 54.0077 51.7286 53.9698 51.5758 53.7955C48.0064 49.7477 44.4294 45.7076 40.8601 41.6674C40.8218 41.622 40.776 41.5689 40.7148 41.4931C42.3811 39.4617 44.0396 37.415 45.7288 35.3457Z" fill="white"/>
<path d="M87.9347 48.3755C84.6328 48.3755 81.3539 48.3755 78.0444 48.3755C78.0444 40.6364 78.0444 32.9047 78.0444 25.1504C81.331 25.1504 84.6175 25.1504 87.9347 25.1504C87.9347 32.882 87.9347 40.6136 87.9347 48.3755Z" fill="white"/>
<path d="M68.6663 48.2543C65.4409 48.2543 62.2384 48.2543 59.0054 48.2543C59.0054 40.553 59.0054 32.8668 59.0054 25.1504C62.2155 25.1504 65.4256 25.1504 68.6663 25.1504C68.6663 32.8365 68.6663 40.5302 68.6663 48.2543Z" fill="white"/>
<path d="M26.8428 48.2925C26.8428 40.5533 26.8428 32.8368 26.8428 25.0977C30.0223 25.0977 33.1866 25.0977 36.3814 25.0977C36.3814 32.8141 36.3814 40.5381 36.3814 48.2925C33.2248 48.2925 30.0529 48.2925 26.8428 48.2925Z" fill="white"/>
<path d="M52.9211 25.1504C52.5084 25.6658 52.1262 26.1434 51.7364 26.6133C48.0066 31.2068 44.2767 35.8079 40.5545 40.4089C40.4093 40.5833 40.2717 40.6515 40.0501 40.6439C39.1558 40.6288 38.2692 40.6363 37.352 40.6363C37.3444 40.5226 37.3291 40.4317 37.3291 40.3331C37.3291 37.8014 37.3291 35.2621 37.3367 32.7304C37.3367 32.5864 37.3902 32.412 37.482 32.2983C39.217 29.9713 40.9596 27.6594 42.7099 25.3399C42.794 25.2338 42.9545 25.1276 43.0844 25.1276C46.3098 25.1125 49.5352 25.1201 52.7606 25.1201C52.7836 25.1352 52.8141 25.1428 52.9211 25.1504Z" fill="white"/>
<path d="M47.6396 53.9923C47.4256 53.9923 47.3033 53.9923 47.1734 53.9923C40.455 53.9923 33.7367 53.9923 27.0107 53.9999C26.7432 53.9999 26.5674 53.9317 26.3993 53.7043C25.6579 52.6886 24.8859 51.688 24.1293 50.6874C24.0834 50.6192 24.0375 50.551 23.9688 50.4449C24.1063 50.4373 24.2057 50.4297 24.305 50.4297C30.8934 50.4297 37.4895 50.4221 44.0779 50.4146C44.2995 50.4146 44.4524 50.4752 44.5976 50.642C45.5912 51.7411 46.5772 52.825 47.6396 53.9923Z" fill="white"/>
<path d="M77.2494 36.8994C77.2494 37.142 77.2494 37.3466 77.2494 37.5437C77.2494 39.7268 77.2417 41.9098 77.2494 44.1004C77.2494 44.2975 77.2111 44.4264 77.0201 44.5249C74.5437 45.8666 72.0673 47.2234 69.5909 48.5726C69.5221 48.6105 69.4457 48.6409 69.3311 48.6863C69.3311 48.5726 69.3311 48.4892 69.3311 48.4059C69.3387 46.0182 69.3463 43.638 69.3463 41.2503C69.3463 41.0684 69.3616 40.9396 69.5603 40.841C72.0597 39.56 74.5513 38.2714 77.0506 36.9828C77.0965 36.9601 77.1424 36.9373 77.2494 36.8994Z" fill="white"/>
<path d="M20.5449 32.9654C20.5449 30.3503 20.5449 27.7579 20.5449 25.1353C21.6379 25.1353 22.7156 25.1353 23.8085 25.1353C23.8085 27.7352 23.8085 30.3427 23.8085 32.9654C22.7385 32.9654 21.6532 32.9654 20.5449 32.9654Z" fill="white"/>
<path d="M43.0004 2.44858C42.9469 2.4789 42.9316 2.48648 42.9316 2.49406C42.6029 3.03982 42.0985 3.10046 41.51 3.07014C40.7227 3.03224 39.9355 3.05498 39.1482 3.06256C38.9419 3.06256 38.8654 3.00192 38.8731 2.78968C38.8884 2.22118 38.8731 1.65268 38.8807 1.08418C38.8884 0.583897 39.2323 0.182156 39.7215 0.174576C41.3495 0.151836 42.9851 0.159416 44.6437 0.159416C44.6437 1.12208 44.6437 2.062 44.6437 3.01708C44.101 3.01708 43.5736 3.01708 43.0309 3.01708C43.0233 2.82758 43.008 2.65324 43.0004 2.44858ZM43.0004 0.849197C42.3201 0.849197 41.6705 0.849197 41.0284 0.849197C40.7991 0.849197 40.6616 0.985637 40.6463 1.19788C40.6234 1.58446 40.6386 1.97104 40.6386 2.35762C41.4412 2.35762 42.2131 2.35762 43.0004 2.35762C43.0004 1.85734 43.0004 1.37222 43.0004 0.849197Z" fill="white"/>
<path d="M67.8329 3.01668C67.2673 3.01668 66.7247 3.01668 66.1591 3.01668C66.1591 2.30416 66.1591 1.59922 66.1591 0.856378C65.6011 0.856378 65.0737 0.848798 64.5464 0.863958C64.4776 0.863958 64.4088 1.00798 64.34 1.08378C64.4241 1.15958 64.5005 1.28844 64.5846 1.28844C65.0126 1.31118 65.433 1.29602 65.9145 1.29602C65.8381 1.38698 65.7922 1.44762 65.7387 1.50068C65.2419 1.96306 64.7451 2.42544 64.233 2.87266C64.1413 2.95604 63.9961 3.02426 63.8738 3.03184C63.3464 3.047 62.8114 3.03942 62.284 3.03942C62.2763 3.0091 62.2611 2.97878 62.2534 2.95604C62.6738 2.63768 63.0865 2.31174 63.5298 1.97064C63.4763 1.9479 63.4534 1.92516 63.4305 1.92516C62.9107 1.90242 62.6814 1.73566 62.5744 1.33392C62.4521 0.856378 62.5974 0.447058 62.9872 0.204497C63.0636 0.159017 63.163 0.113537 63.247 0.113537C64.768 0.105957 66.289 0.105957 67.8406 0.105957C67.8329 1.06862 67.8329 2.0237 67.8329 3.01668Z" fill="white"/>
<path d="M46.7531 0.871538C46.7531 1.50068 46.7454 2.10708 46.7607 2.72106C46.7684 2.9712 46.7072 3.07732 46.4321 3.06974C45.9811 3.047 45.5225 3.06216 45.041 3.06216C45.041 2.06918 45.041 1.10652 45.041 0.105957C46.8601 0.105957 48.6715 0.105957 50.4982 0.105957C50.4982 1.0762 50.4982 2.04644 50.4982 3.05458C49.9632 3.05458 49.4358 3.06216 48.9085 3.047C48.8626 3.047 48.7862 2.8954 48.7785 2.8196C48.7632 2.289 48.7709 1.76598 48.7709 1.23538C48.7709 1.12168 48.7709 1.00798 48.7709 0.879118C48.0906 0.871538 47.4333 0.871538 46.7531 0.871538Z" fill="white"/>
<path d="M56.5747 0.143924C57.1327 0.143924 57.66 0.143924 58.2027 0.143924C58.2027 0.742745 58.2027 1.32641 58.2027 1.97071C58.3173 1.88733 58.3938 1.84943 58.4549 1.79637C59.0511 1.28851 59.6473 0.773065 60.2511 0.280365C60.3657 0.181825 60.5491 0.121184 60.702 0.113604C61.1224 0.0908644 61.5504 0.106024 62.0013 0.106024C62.0013 1.08385 62.0013 2.03893 62.0013 3.02433C61.451 3.02433 60.9007 3.02433 60.3275 3.02433C60.3275 2.41793 60.3275 1.81911 60.3275 1.13691C60.1976 1.24303 60.1058 1.30367 60.0294 1.37189C59.4562 1.87975 58.8906 2.38761 58.3173 2.88789C58.2486 2.94853 58.1645 3.03191 58.0804 3.03191C57.5836 3.04707 57.0868 3.03949 56.5747 3.03949C56.5747 2.05409 56.5747 1.11417 56.5747 0.143924Z" fill="white"/>
<path d="M78.9387 3.02423C78.3807 3.02423 77.8381 3.02423 77.2572 3.02423C77.2572 2.40267 77.2572 1.78868 77.2572 1.0989C76.7069 1.58402 76.1871 1.98577 75.7362 2.45573C75.3082 2.90295 74.8419 3.12277 74.2152 3.03181C73.9859 3.00149 73.749 3.02423 73.5044 3.02423C73.5044 2.04641 73.5044 1.0989 73.5044 0.128662C74.0318 0.128662 74.5668 0.128662 75.14 0.128662C75.14 0.735063 75.14 1.31872 75.14 1.97819C75.3311 1.819 75.4687 1.7053 75.5986 1.5916C76.1336 1.1368 76.661 0.682003 77.2037 0.234782C77.2878 0.166562 77.4024 0.0983422 77.5018 0.0983422C77.968 0.0831822 78.4342 0.0907622 78.931 0.0907622C78.9387 1.07616 78.9387 2.03125 78.9387 3.02423Z" fill="white"/>
<path d="M27.0109 0.121094C27.0109 1.1065 27.0109 2.06158 27.0109 3.04698C26.453 3.04698 25.9027 3.04698 25.3141 3.04698C25.3141 2.34204 25.3141 1.62952 25.3141 0.901835C24.611 0.901835 23.946 0.901835 23.2505 0.901835C23.2505 1.62194 23.2505 2.32688 23.2505 3.04698C22.6773 3.04698 22.1269 3.04698 21.5537 3.04698C21.5537 2.07674 21.5537 1.11408 21.5537 0.121094C23.3575 0.121094 25.1766 0.121094 27.0109 0.121094Z" fill="white"/>
<path d="M84.029 1.28111C83.7844 1.69044 83.5551 2.0088 82.9896 1.94058C82.4469 1.87236 81.8813 1.92542 81.2851 1.92542C81.4456 2.20588 81.652 2.312 81.9348 2.312C82.7755 2.312 83.6163 2.312 84.457 2.312C84.5564 2.312 84.6634 2.312 84.8239 2.312C84.6328 2.56972 84.4876 2.78954 84.3195 2.98662C84.2736 3.04726 84.1513 3.06242 84.0672 3.06242C82.9513 3.06242 81.8278 3.06242 80.7119 3.03968C79.9017 3.02452 79.3591 2.36506 79.3743 1.43271C79.382 0.667134 79.9629 0.0986328 80.7348 0.0986328C82.0647 0.0986328 83.3946 0.0986328 84.7322 0.0986328C84.5793 0.576174 84.2277 0.841474 83.7615 0.841474C83.1883 0.841474 82.615 0.841474 82.0342 0.841474C81.3921 0.841474 81.1093 1.20531 81.2546 1.87994C81.3157 1.82688 81.3845 1.79656 81.4151 1.73592C81.6749 1.29627 82.0571 1.19015 82.5462 1.23563C82.9972 1.27353 83.4634 1.25079 83.922 1.25079C83.9526 1.25837 83.9679 1.26595 84.029 1.28111Z" fill="white"/>
<path d="M52.585 3.06216C51.9888 3.06216 51.4538 3.06216 50.8882 3.06216C50.8882 2.08434 50.8882 1.12168 50.8882 0.128697C50.9799 0.121117 51.0716 0.105957 51.1557 0.105957C52.5162 0.105957 53.8767 0.105957 55.2371 0.113537C55.7874 0.113537 56.1161 0.409158 56.1467 0.917018C56.1849 1.531 55.9403 1.88726 55.3518 1.91758C54.4652 1.95548 53.5709 1.92516 52.6538 1.92516C52.883 1.52342 53.12 1.20506 53.6397 1.3036C53.869 1.3415 54.106 1.32634 54.3352 1.29602C54.4193 1.28086 54.5493 1.152 54.5493 1.0762C54.5493 1.0004 54.4193 0.848798 54.3505 0.848798C53.7697 0.826058 53.1888 0.841218 52.5773 0.841218C52.585 1.59164 52.585 2.31174 52.585 3.06216Z" fill="white"/>
<path d="M29.1203 3.04726C28.5241 3.04726 27.9814 3.04726 27.4082 3.04726C27.4082 2.07702 27.4082 1.09919 27.4082 0.113793C27.5229 0.106213 27.6146 0.0986328 27.7063 0.0986328C29.0668 0.0986328 30.4349 0.0986328 31.7954 0.106213C32.2692 0.106213 32.5979 0.379093 32.6438 0.788414C32.7126 1.46303 32.5597 1.75866 32.0094 1.86478C31.6578 1.933 31.2909 1.91784 30.9317 1.92542C30.3355 1.933 29.747 1.92542 29.1126 1.92542C29.1203 2.30442 29.1203 2.66068 29.1203 3.04726ZM29.1279 1.90268C29.2426 1.77382 29.3113 1.7056 29.3572 1.62979C29.5177 1.35691 29.747 1.25837 30.068 1.28869C30.3279 1.31901 30.603 1.31143 30.8629 1.28111C30.9546 1.27353 31.0769 1.14467 31.0998 1.04613C31.1151 0.977914 30.9928 0.803574 30.9317 0.803574C30.3279 0.780834 29.7317 0.788414 29.1279 0.788414C29.1279 1.16741 29.1279 1.49335 29.1279 1.90268Z" fill="white"/>
<path d="M38.5446 2.32704C38.3535 2.58476 38.2236 2.78942 38.0631 2.96376C38.0019 3.03198 37.8873 3.06988 37.7956 3.06988C36.6491 3.07746 35.495 3.07746 34.3485 3.0623C33.7447 3.05472 33.1179 2.43316 33.1103 1.83434C33.1027 1.56146 33.095 1.27342 33.1638 1.02328C33.3167 0.492676 33.7294 0.159156 34.2568 0.143996C35.6478 0.106096 37.0389 0.128836 38.4299 0.128836C38.2924 0.583637 37.9408 0.848937 37.4898 0.848937C36.886 0.848937 36.2746 0.848937 35.6708 0.848937C35.2122 0.848937 34.8835 1.17488 34.8912 1.62968C34.8988 2.02384 35.2122 2.3422 35.6708 2.32704C36.6032 2.3043 37.5357 2.32704 38.5446 2.32704Z" fill="white"/>
<path d="M71.6009 0.856634C71.6009 1.59189 71.6009 2.29684 71.6009 3.0321C71.0201 3.0321 70.485 3.0321 69.9194 3.0321C69.9194 2.32716 69.9194 1.61463 69.9194 0.864214C69.2851 0.864214 68.6736 0.864214 68.0469 0.864214C68.2456 0.348773 68.5895 0.0986328 69.0787 0.0986328C70.378 0.0986328 71.6774 0.0986328 72.9767 0.0986328C73.0837 0.0986328 73.1831 0.0986328 73.2901 0.0986328C73.313 0.121373 73.3283 0.151693 73.3512 0.174433C73.1219 0.401833 72.9308 0.720194 72.6557 0.826314C72.35 0.940014 71.9831 0.856634 71.6009 0.856634Z" fill="white"/>
<path d="M20.3081 25.1504C20.3081 25.4839 20.3081 25.7871 20.3081 26.1131C19.4215 26.1131 18.5349 26.1131 17.6177 26.1131C17.6177 25.8023 17.6177 25.4839 17.6177 25.1504C18.5119 25.1504 19.3909 25.1504 20.3081 25.1504Z" fill="white"/>
<path d="M35.0132 1.94063C35.296 1.50099 35.5711 1.22053 36.1062 1.28117C36.6259 1.34181 37.1609 1.29633 37.7036 1.29633C37.3749 1.93305 37.2603 1.98611 36.5877 1.94821C36.0832 1.91789 35.5788 1.94063 35.0132 1.94063Z" fill="white"/>
</svg>
