<svg width="122" height="54" viewBox="0 0 122 54" fill="none" xmlns="http://www.w3.org/2000/svg">
<g clip-path="url(#clip0_63_19)">
<path d="M0.0534668 1.1747C0.0916826 1.09132 0.145185 1.00794 0.175757 0.924561C0.366836 0.39396 0.748994 0.12108 1.30694 0.1135C2.39227 0.0983397 3.4776 0.0907597 4.56293 0.10592C5.15145 0.1135 5.73997 0.727481 5.74762 1.30356C5.75526 1.69014 5.78583 2.0843 5.54889 2.43298C5.30431 2.78924 4.99859 3.01664 4.55528 3.01664C3.4776 3.02422 2.40756 3.06212 1.32987 3.03938C0.687848 3.0318 0.298048 2.62248 0.0534668 2.06156C0.0534668 1.76594 0.0534668 1.47032 0.0534668 1.1747ZM2.95022 2.3117V2.30412C3.1413 2.30412 3.33238 2.3117 3.52346 2.30412C3.89033 2.28138 4.12727 2.02366 4.1502 1.63708C4.17313 1.2505 3.93619 0.901821 3.5846 0.879081C3.17187 0.848761 2.75914 0.848761 2.34641 0.879081C1.94133 0.909401 1.6891 1.2505 1.71967 1.65224C1.75025 2.0085 2.06362 2.30412 2.43813 2.31928C2.60628 2.31928 2.78207 2.3117 2.95022 2.3117Z" fill="#162C44"/>
<path d="M117.017 19.1091C117.644 19.1091 118.263 19.1015 118.882 19.1167C118.989 19.1167 119.127 19.1546 119.188 19.2228C120.143 20.3977 121.099 21.5726 122.092 22.8157C116.902 22.8157 111.782 22.8157 106.622 22.8157C106.622 31.3205 106.622 39.7722 106.622 48.2467C103.298 48.2467 100.011 48.2467 96.694 48.2467C96.694 39.7874 96.694 31.3281 96.694 22.846C64.5698 22.846 32.4762 22.846 0.329102 22.846C0.390247 22.7323 0.420819 22.6565 0.466678 22.5959C1.25392 21.4437 2.04117 20.2916 2.81313 19.1243C2.93542 18.9423 3.07299 18.8893 3.27936 18.8893C5.90096 18.8969 8.52256 18.8893 11.1365 18.8893C18.8485 18.8893 26.5604 18.8893 34.2723 18.8893C34.5399 18.8893 34.6927 18.8665 34.7921 18.5482C35.0672 17.6992 36.3131 17.4339 37.0392 18.0479C37.215 18.1995 37.3602 18.2222 37.5742 18.1616C41.8696 17.0322 46.1651 15.9028 50.4605 14.7885C50.6822 14.7278 50.8121 14.6369 50.9115 14.4095C51.1866 13.7728 51.9968 13.5757 52.5471 14.0077C52.7229 14.1442 52.8605 14.1593 53.0592 14.1063C58.0731 12.7874 63.0794 11.476 68.0933 10.1647C68.2767 10.1192 68.3914 10.051 68.4602 9.84632C68.7047 9.12622 69.5913 8.88366 70.1799 9.37636C70.3557 9.52038 70.4856 9.53554 70.692 9.48248C75.7135 8.16356 80.7351 6.84464 85.7566 5.53329C85.9171 5.48781 86.0165 5.41959 86.0776 5.25283C86.3528 4.52515 87.1859 4.29775 87.7973 4.79045C87.9502 4.91173 88.0725 4.92689 88.2559 4.87383C92.0087 3.88843 95.7615 2.91061 99.5143 1.93279C99.7054 1.87973 99.8429 1.82667 99.8964 1.58411C100.088 0.697247 100.921 0.128747 101.845 0.234867C102.694 0.333407 103.397 1.11415 103.382 1.98585C103.374 2.25873 103.443 2.45581 103.611 2.66805C105.537 5.07849 107.463 7.5041 109.382 9.9297C111.346 12.4084 113.318 14.887 115.282 17.3657C115.412 17.5325 115.55 17.6462 115.787 17.6841C116.505 17.8053 116.887 18.2677 117.017 19.1091ZM37.834 18.8059C37.834 18.8362 37.834 18.859 37.8417 18.8893C37.9869 18.8893 38.1321 18.8893 38.285 18.8893C57.2859 18.8893 76.2791 18.8893 95.28 18.8893C95.3641 18.8893 95.4558 18.8817 95.5322 18.8893C95.7386 18.9196 95.815 18.8135 95.8609 18.6391C95.9831 18.1919 96.136 17.7523 96.2354 17.3051C96.3042 17.017 96.4112 16.8503 96.7398 16.9109C96.9691 16.9564 97.0608 16.8578 97.1143 16.6153C97.8175 13.4089 98.536 10.2102 99.2544 7.0114C99.5372 5.73037 99.8277 4.44935 100.11 3.16075C100.195 2.78175 99.9882 2.58467 99.6136 2.68321C95.8914 3.65345 92.1692 4.62369 88.4546 5.59394C88.2941 5.63941 88.2177 5.6849 88.1795 5.86682C88.0954 6.26856 87.8279 6.5566 87.4305 6.65514C87.033 6.75368 86.6356 6.7082 86.3451 6.37468C86.1999 6.20792 86.07 6.20792 85.8789 6.2534C85.0229 6.48838 84.1592 6.7082 83.2955 6.92802C79.1529 8.01196 75.0103 9.08832 70.8678 10.1647C70.7072 10.2102 70.6002 10.2708 70.5467 10.4527C70.3022 11.3244 69.3391 11.5746 68.6971 10.9303C68.5748 10.8014 68.4754 10.7938 68.3073 10.8393C66.7481 11.2486 65.1889 11.6504 63.6373 12.0597C60.175 12.9617 56.7126 13.8713 53.2426 14.7733C53.0821 14.8188 52.9904 14.8643 52.9599 15.0538C52.8987 15.4934 52.6236 15.7815 52.2032 15.9028C51.7904 16.024 51.3854 15.9407 51.0949 15.5996C50.9497 15.4252 50.8274 15.3949 50.6058 15.4555C47.8542 16.1832 45.095 16.9033 42.3359 17.6234C40.8378 18.0252 39.3398 18.4117 37.834 18.8059ZM114.113 19.1015C114.029 18.8817 113.998 18.6998 113.899 18.5709C112.263 16.4561 110.612 14.3413 108.961 12.234C108.839 12.0748 108.633 11.9763 108.503 11.8171C108.319 11.6125 108.159 11.3775 108.006 11.1501C107.929 11.044 107.914 10.8924 107.838 10.7938C106.561 9.14896 105.277 7.5041 104.001 5.85924C103.603 5.35137 103.206 4.84351 102.808 4.34323C102.786 4.46451 102.808 4.56305 102.831 4.66159C103.947 8.61836 105.071 12.5675 106.187 16.5319C106.271 16.8199 106.37 16.9791 106.691 16.9185C106.936 16.873 107.043 16.9867 107.112 17.2217C107.303 17.8584 107.532 18.48 107.746 19.1091C109.833 19.1015 111.911 19.1015 114.113 19.1015ZM105.552 16.8957C105.178 15.5162 104.811 14.1821 104.436 12.8025C102.549 14.1669 100.707 15.501 98.857 16.8351C98.8646 16.8503 98.8799 16.873 98.8876 16.8882C101.089 16.8957 103.29 16.8957 105.552 16.8957ZM98.1156 16.4258C99.9958 15.1068 101.792 13.841 103.596 12.5675C102.075 12.5145 100.592 12.5145 99.1015 12.5069C98.9105 12.5069 98.8799 12.6054 98.8493 12.757C98.7118 13.4544 98.5589 14.1593 98.4213 14.8567C98.3219 15.3494 98.2302 15.8421 98.1156 16.4258ZM103.343 11.6883C103.359 11.6579 103.382 11.6352 103.397 11.6049C102.189 10.4603 100.989 9.3233 99.7894 8.1863C99.5678 9.30056 99.3232 10.483 99.0786 11.6883C100.538 11.6883 101.937 11.6883 103.343 11.6883ZM100.584 7.79214C101.662 8.92156 102.824 10.1344 103.986 11.3472C103.779 10.3769 103.527 9.44458 103.275 8.51224C103.084 7.79214 103.084 7.79214 102.335 7.79214C101.685 7.79214 101.043 7.79214 100.584 7.79214ZM109.466 11.855C111.117 13.9395 112.76 16.0165 114.411 18.101C114.548 17.9948 114.663 17.9039 114.793 17.8053C113.127 15.7284 111.476 13.6591 109.802 11.5746C109.687 11.6731 109.58 11.7565 109.466 11.855ZM100.309 6.9735C101.173 6.9735 101.991 6.9735 102.847 6.9735C102.594 6.04874 102.35 5.15429 102.105 4.26743C102.075 4.26743 102.044 4.25985 102.014 4.25985C101.456 5.16187 100.89 6.05632 100.309 6.9735ZM108.571 10.0207C106.714 7.70118 104.864 5.39685 103.015 3.08495C102.908 3.19107 102.831 3.25929 102.74 3.35025C104.574 5.66973 106.401 7.97406 108.227 10.2784C108.342 10.1874 108.441 10.1116 108.571 10.0207ZM100.302 5.70005C100.324 5.70763 100.355 5.71521 100.378 5.73037C100.791 5.08607 101.203 4.44935 101.616 3.79747C101.303 3.71409 101.02 3.64587 100.73 3.56249C100.584 4.28259 100.439 4.98753 100.302 5.70005Z" fill="#162C44"/>
<path d="M45.729 35.3457C46.3404 36.0052 46.929 36.6419 47.5098 37.2786C51.4461 41.5537 55.3823 45.8213 59.3109 50.104C59.4867 50.2935 59.6625 50.3617 59.9147 50.3617C80.4366 50.3541 100.958 50.3541 121.48 50.3541C121.618 50.3541 121.748 50.3541 121.954 50.3541C121.656 50.7331 121.404 51.0666 121.144 51.3926C120.54 52.1582 119.929 52.9162 119.34 53.6893C119.187 53.8864 119.027 53.9546 118.782 53.9546C104.138 53.9546 89.4937 53.9546 74.8494 53.9622C67.2674 53.9698 59.6854 53.9925 52.1034 54.0077C51.8894 54.0077 51.7289 53.9698 51.576 53.7955C48.0067 49.7477 44.4297 45.7076 40.8603 41.6674C40.8221 41.622 40.7762 41.5689 40.7151 41.4931C42.3813 39.4617 44.0399 37.415 45.729 35.3457Z" fill="#162C44"/>
<path d="M87.9342 48.3755C84.6323 48.3755 81.3534 48.3755 78.0439 48.3755C78.0439 40.6364 78.0439 32.9047 78.0439 25.1504C81.3305 25.1504 84.6171 25.1504 87.9342 25.1504C87.9342 32.882 87.9342 40.6136 87.9342 48.3755Z" fill="#162C44"/>
<path d="M68.6658 48.2543C65.4404 48.2543 62.2379 48.2543 59.0049 48.2543C59.0049 40.553 59.0049 32.8668 59.0049 25.1504C62.215 25.1504 65.4251 25.1504 68.6658 25.1504C68.6658 32.8365 68.6658 40.5302 68.6658 48.2543Z" fill="#162C44"/>
<path d="M26.8428 48.2925C26.8428 40.5533 26.8428 32.8368 26.8428 25.0977C30.0223 25.0977 33.1866 25.0977 36.3814 25.0977C36.3814 32.8141 36.3814 40.5381 36.3814 48.2925C33.2248 48.2925 30.0529 48.2925 26.8428 48.2925Z" fill="#162C44"/>
<path d="M52.9211 25.1504C52.5084 25.6658 52.1262 26.1434 51.7364 26.6133C48.0066 31.2068 44.2767 35.8079 40.5545 40.4089C40.4093 40.5833 40.2717 40.6515 40.0501 40.6439C39.1558 40.6288 38.2692 40.6363 37.352 40.6363C37.3444 40.5226 37.3291 40.4317 37.3291 40.3331C37.3291 37.8014 37.3291 35.2621 37.3367 32.7304C37.3367 32.5864 37.3902 32.412 37.482 32.2983C39.217 29.9713 40.9596 27.6594 42.7099 25.3399C42.794 25.2338 42.9545 25.1276 43.0844 25.1276C46.3098 25.1125 49.5352 25.1201 52.7606 25.1201C52.7836 25.1352 52.8141 25.1428 52.9211 25.1504Z" fill="#162C44"/>
<path d="M47.6398 53.9923C47.4258 53.9923 47.3035 53.9923 47.1736 53.9923C40.4553 53.9923 33.7369 53.9923 27.011 53.9999C26.7435 53.9999 26.5677 53.9317 26.3995 53.7043C25.6581 52.6886 24.8862 51.688 24.1295 50.6874C24.0836 50.6192 24.0378 50.551 23.969 50.4449C24.1066 50.4373 24.2059 50.4297 24.3053 50.4297C30.8937 50.4297 37.4897 50.4221 44.0781 50.4146C44.2998 50.4146 44.4526 50.4752 44.5979 50.642C45.5915 51.7411 46.5774 52.825 47.6398 53.9923Z" fill="#162C44"/>
<path d="M77.2494 36.8994C77.2494 37.142 77.2494 37.3466 77.2494 37.5437C77.2494 39.7268 77.2417 41.9098 77.2494 44.1004C77.2494 44.2975 77.2111 44.4264 77.0201 44.5249C74.5437 45.8666 72.0673 47.2234 69.5909 48.5726C69.5221 48.6105 69.4457 48.6409 69.3311 48.6863C69.3311 48.5726 69.3311 48.4892 69.3311 48.4059C69.3387 46.0182 69.3463 43.638 69.3463 41.2503C69.3463 41.0684 69.3616 40.9396 69.5603 40.841C72.0597 39.56 74.5513 38.2714 77.0506 36.9828C77.0965 36.9601 77.1424 36.9373 77.2494 36.8994Z" fill="#162C44"/>
<path d="M9.79883 25.0898C10.8612 25.0898 11.9083 25.0898 12.9478 25.0898C13.1695 25.0898 13.1389 25.2339 13.1389 25.3703C13.1389 26.3481 13.1389 27.3335 13.1389 28.3113C13.1389 29.7364 13.1389 31.1614 13.1389 32.5865C13.1389 32.7002 13.1389 32.8139 13.1389 32.9579C12.0153 32.9579 10.9224 32.9579 9.79883 32.9579C9.79883 30.358 9.79883 27.7504 9.79883 25.0898Z" fill="#162C44"/>
<path d="M3.3783 25.1431C4.48656 25.1431 5.5566 25.1431 6.65722 25.1431C6.65722 27.7582 6.65722 30.3733 6.65722 33.0111C6.58843 33.0187 6.50435 33.0414 6.42028 33.0414C5.49546 33.0414 4.57064 33.0339 3.63817 33.049C3.42416 33.049 3.34009 33.0035 3.34009 32.7686C3.34773 30.2975 3.34773 27.8264 3.34773 25.3553C3.35537 25.2947 3.37066 25.234 3.3783 25.1431Z" fill="#162C44"/>
<path d="M17.3423 33.0263C16.2646 33.0263 15.1946 33.0263 14.094 33.0263C14.094 30.4036 14.094 27.796 14.094 25.1582C15.1717 25.1582 16.2417 25.1582 17.3423 25.1582C17.3423 27.7733 17.3423 30.3884 17.3423 33.0263Z" fill="#162C44"/>
<path d="M20.5447 32.9654C20.5447 30.3503 20.5447 27.7579 20.5447 25.1353C21.6376 25.1353 22.7153 25.1353 23.8083 25.1353C23.8083 27.7352 23.8083 30.3427 23.8083 32.9654C22.7383 32.9654 21.6529 32.9654 20.5447 32.9654Z" fill="#162C44"/>
<path d="M43.0009 2.44858C42.9474 2.4789 42.9321 2.48648 42.9321 2.49406C42.6034 3.03982 42.099 3.10046 41.5104 3.07014C40.7232 3.03224 39.936 3.05498 39.1487 3.06256C38.9424 3.06256 38.8659 3.00192 38.8736 2.78968C38.8889 2.22118 38.8736 1.65268 38.8812 1.08418C38.8889 0.583897 39.2328 0.182156 39.722 0.174576C41.3499 0.151836 42.9856 0.159416 44.6441 0.159416C44.6441 1.12208 44.6441 2.062 44.6441 3.01708C44.1015 3.01708 43.5741 3.01708 43.0314 3.01708C43.0238 2.82758 43.0085 2.65324 43.0009 2.44858ZM43.0009 0.849197C42.3206 0.849197 41.671 0.849197 41.0289 0.849197C40.7996 0.849197 40.6621 0.985637 40.6468 1.19788C40.6238 1.58446 40.6391 1.97104 40.6391 2.35762C41.4417 2.35762 42.2136 2.35762 43.0009 2.35762C43.0009 1.85734 43.0009 1.37222 43.0009 0.849197Z" fill="#162C44"/>
<path d="M67.8334 3.01668C67.2678 3.01668 66.7251 3.01668 66.1596 3.01668C66.1596 2.30416 66.1596 1.59922 66.1596 0.856378C65.6016 0.856378 65.0742 0.848798 64.5469 0.863958C64.4781 0.863958 64.4093 1.00798 64.3405 1.08378C64.4246 1.15958 64.501 1.28844 64.5851 1.28844C65.0131 1.31118 65.4335 1.29602 65.915 1.29602C65.8385 1.38698 65.7927 1.44762 65.7392 1.50068C65.2424 1.96306 64.7456 2.42544 64.2335 2.87266C64.1418 2.95604 63.9965 3.02426 63.8743 3.03184C63.3469 3.047 62.8119 3.03942 62.2845 3.03942C62.2768 3.0091 62.2615 2.97878 62.2539 2.95604C62.6743 2.63768 63.087 2.31174 63.5303 1.97064C63.4768 1.9479 63.4539 1.92516 63.431 1.92516C62.9112 1.90242 62.6819 1.73566 62.5749 1.33392C62.4526 0.856378 62.5978 0.447058 62.9876 0.204497C63.0641 0.159017 63.1634 0.113537 63.2475 0.113537C64.7685 0.105957 66.2895 0.105957 67.841 0.105957C67.8334 1.06862 67.8334 2.0237 67.8334 3.01668Z" fill="#162C44"/>
<path d="M9.00406 3.04719C8.50725 3.04719 8.00281 3.04719 7.506 3.04719C6.73404 3.04719 6.16845 2.51659 6.15316 1.75101C6.14552 1.45539 6.19138 1.14461 6.29074 0.864146C6.45125 0.394185 6.81812 0.121305 7.33021 0.113725C8.44611 0.0985646 9.56201 0.0834046 10.6779 0.0985646C11.2588 0.106145 11.832 0.727706 11.8167 1.29621C11.8091 1.63731 11.7938 2.00115 11.6792 2.31193C11.5034 2.76673 11.1212 3.01687 10.6091 3.01687C10.0741 3.01687 9.54672 3.01687 9.0117 3.01687C9.00406 3.03203 9.00406 3.03961 9.00406 3.04719ZM9.0652 2.31193V2.30435C9.24864 2.30435 9.42443 2.31193 9.60787 2.30435C9.97474 2.28161 10.204 2.02389 10.2193 1.62973C10.2346 1.22799 10.013 0.902046 9.65373 0.879306C9.241 0.856566 8.82827 0.848986 8.41554 0.879306C8.02573 0.909626 7.76587 1.25073 7.7888 1.62215C7.81173 1.97841 8.1251 2.29677 8.49197 2.31193C8.68305 2.31951 8.87413 2.31193 9.0652 2.31193Z" fill="#162C44"/>
<path d="M46.7531 0.871538C46.7531 1.50068 46.7454 2.10708 46.7607 2.72106C46.7684 2.9712 46.7072 3.07732 46.4321 3.06974C45.9811 3.047 45.5225 3.06216 45.041 3.06216C45.041 2.06918 45.041 1.10652 45.041 0.105957C46.8601 0.105957 48.6715 0.105957 50.4982 0.105957C50.4982 1.0762 50.4982 2.04644 50.4982 3.05458C49.9632 3.05458 49.4358 3.06216 48.9085 3.047C48.8626 3.047 48.7862 2.8954 48.7785 2.8196C48.7632 2.289 48.7709 1.76598 48.7709 1.23538C48.7709 1.12168 48.7709 1.00798 48.7709 0.879118C48.0906 0.871538 47.4333 0.871538 46.7531 0.871538Z" fill="#162C44"/>
<path d="M15.0727 3.02458C14.5606 3.02458 14.0485 3.02458 13.5364 3.02458C12.8179 3.02458 12.2676 2.47881 12.26 1.77387C12.26 1.57679 12.2294 1.36455 12.2753 1.17505C12.4358 0.439791 12.8561 0.106271 13.6281 0.106271C14.6523 0.0986909 15.6688 0.0986909 16.693 0.106271C17.2662 0.106271 17.8624 0.629292 17.9083 1.19779C17.9312 1.49341 17.9312 1.79661 17.8701 2.07707C17.7554 2.63799 17.251 3.017 16.6701 3.017C16.1351 3.02458 15.6077 3.017 15.0727 3.017C15.0727 3.017 15.0727 3.017 15.0727 3.02458ZM15.1338 2.29689C15.1338 2.28931 15.1338 2.28173 15.1338 2.28173C15.3249 2.28173 15.516 2.28931 15.707 2.28173C16.1121 2.25899 16.3261 1.99369 16.3109 1.54647C16.2956 1.12957 16.0663 0.864272 15.6841 0.856692C15.3325 0.849112 14.9809 0.849112 14.6294 0.856692C14.1631 0.864272 13.8956 1.14473 13.9109 1.59953C13.9185 2.00127 14.2243 2.29689 14.6523 2.30447C14.8128 2.30447 14.9733 2.29689 15.1338 2.29689Z" fill="#162C44"/>
<path d="M56.5742 0.143924C57.1322 0.143924 57.6595 0.143924 58.2022 0.143924C58.2022 0.742745 58.2022 1.32641 58.2022 1.97071C58.3169 1.88733 58.3933 1.84943 58.4544 1.79637C59.0506 1.28851 59.6468 0.773065 60.2506 0.280365C60.3652 0.181825 60.5487 0.121184 60.7015 0.113604C61.1219 0.0908644 61.5499 0.106024 62.0009 0.106024C62.0009 1.08385 62.0009 2.03893 62.0009 3.02433C61.4506 3.02433 60.9002 3.02433 60.327 3.02433C60.327 2.41793 60.327 1.81911 60.327 1.13691C60.1971 1.24303 60.1054 1.30367 60.0289 1.37189C59.4557 1.87975 58.8901 2.38761 58.3169 2.88789C58.2481 2.94853 58.164 3.03191 58.0799 3.03191C57.5831 3.04707 57.0863 3.03949 56.5742 3.03949C56.5742 2.05409 56.5742 1.11417 56.5742 0.143924Z" fill="#162C44"/>
<path d="M78.9382 3.02423C78.3802 3.02423 77.8376 3.02423 77.2567 3.02423C77.2567 2.40267 77.2567 1.78868 77.2567 1.0989C76.7064 1.58402 76.1867 1.98577 75.7357 2.45573C75.3077 2.90295 74.8415 3.12277 74.2147 3.03181C73.9854 3.00149 73.7485 3.02423 73.5039 3.02423C73.5039 2.04641 73.5039 1.0989 73.5039 0.128662C74.0313 0.128662 74.5663 0.128662 75.1395 0.128662C75.1395 0.735063 75.1395 1.31872 75.1395 1.97819C75.3306 1.819 75.4682 1.7053 75.5981 1.5916C76.1331 1.1368 76.6605 0.682003 77.2032 0.234782C77.2873 0.166562 77.4019 0.0983422 77.5013 0.0983422C77.9675 0.0831822 78.4337 0.0907622 78.9305 0.0907622C78.9382 1.07616 78.9382 2.03125 78.9382 3.02423Z" fill="#162C44"/>
<path d="M27.0109 0.121094C27.0109 1.1065 27.0109 2.06158 27.0109 3.04698C26.453 3.04698 25.9027 3.04698 25.3141 3.04698C25.3141 2.34204 25.3141 1.62952 25.3141 0.901835C24.611 0.901835 23.946 0.901835 23.2505 0.901835C23.2505 1.62194 23.2505 2.32688 23.2505 3.04698C22.6773 3.04698 22.1269 3.04698 21.5537 3.04698C21.5537 2.07674 21.5537 1.11408 21.5537 0.121094C23.3575 0.121094 25.1766 0.121094 27.0109 0.121094Z" fill="#162C44"/>
<path d="M84.0288 1.28111C83.7842 1.69044 83.5549 2.0088 82.9893 1.94058C82.4466 1.87236 81.881 1.92542 81.2849 1.92542C81.4454 2.20588 81.6518 2.312 81.9346 2.312C82.7753 2.312 83.616 2.312 84.4568 2.312C84.5562 2.312 84.6632 2.312 84.8237 2.312C84.6326 2.56972 84.4874 2.78954 84.3192 2.98662C84.2734 3.04726 84.1511 3.06242 84.067 3.06242C82.9511 3.06242 81.8275 3.06242 80.7116 3.03968C79.9015 3.02452 79.3588 2.36506 79.3741 1.43271C79.3817 0.667134 79.9626 0.0986328 80.7346 0.0986328C82.0645 0.0986328 83.3944 0.0986328 84.7319 0.0986328C84.5791 0.576174 84.2275 0.841474 83.7613 0.841474C83.188 0.841474 82.6148 0.841474 82.0339 0.841474C81.3919 0.841474 81.1091 1.20531 81.2543 1.87994C81.3155 1.82688 81.3842 1.79656 81.4148 1.73592C81.6747 1.29627 82.0568 1.19015 82.546 1.23563C82.9969 1.27353 83.4632 1.25079 83.9218 1.25079C83.9523 1.25837 83.9676 1.26595 84.0288 1.28111Z" fill="#162C44"/>
<path d="M52.5845 3.06216C51.9883 3.06216 51.4533 3.06216 50.8877 3.06216C50.8877 2.08434 50.8877 1.12168 50.8877 0.128697C50.9794 0.121117 51.0711 0.105957 51.1552 0.105957C52.5157 0.105957 53.8762 0.105957 55.2367 0.113537C55.787 0.113537 56.1156 0.409158 56.1462 0.917018C56.1844 1.531 55.9398 1.88726 55.3513 1.91758C54.4647 1.95548 53.5704 1.92516 52.6533 1.92516C52.8826 1.52342 53.1195 1.20506 53.6392 1.3036C53.8685 1.3415 54.1055 1.32634 54.3348 1.29602C54.4188 1.28086 54.5488 1.152 54.5488 1.0762C54.5488 1.0004 54.4188 0.848798 54.35 0.848798C53.7692 0.826058 53.1883 0.841218 52.5768 0.841218C52.5845 1.59164 52.5845 2.31174 52.5845 3.06216Z" fill="#162C44"/>
<path d="M29.1205 3.04726C28.5243 3.04726 27.9817 3.04726 27.4084 3.04726C27.4084 2.07702 27.4084 1.09919 27.4084 0.113793C27.5231 0.106213 27.6148 0.0986328 27.7065 0.0986328C29.067 0.0986328 30.4351 0.0986328 31.7956 0.106213C32.2695 0.106213 32.5981 0.379093 32.644 0.788414C32.7128 1.46303 32.5599 1.75866 32.0096 1.86478C31.658 1.933 31.2912 1.91784 30.9319 1.92542C30.3358 1.933 29.7473 1.92542 29.1129 1.92542C29.1205 2.30442 29.1205 2.66068 29.1205 3.04726ZM29.1282 1.90268C29.2428 1.77382 29.3116 1.7056 29.3575 1.62979C29.518 1.35691 29.7473 1.25837 30.0683 1.28869C30.3281 1.31901 30.6033 1.31143 30.8632 1.28111C30.9549 1.27353 31.0772 1.14467 31.1001 1.04613C31.1154 0.977914 30.9931 0.803574 30.9319 0.803574C30.3281 0.780834 29.732 0.788414 29.1282 0.788414C29.1282 1.16741 29.1282 1.49335 29.1282 1.90268Z" fill="#162C44"/>
<path d="M38.5443 2.32704C38.3533 2.58476 38.2233 2.78942 38.0628 2.96376C38.0017 3.03198 37.887 3.06988 37.7953 3.06988C36.6488 3.07746 35.4947 3.07746 34.3482 3.0623C33.7444 3.05472 33.1177 2.43316 33.1101 1.83434C33.1024 1.56146 33.0948 1.27342 33.1636 1.02328C33.3164 0.492676 33.7292 0.159156 34.2565 0.143996C35.6476 0.106096 37.0386 0.128836 38.4297 0.128836C38.2921 0.583637 37.9405 0.848937 37.4896 0.848937C36.8858 0.848937 36.2743 0.848937 35.6705 0.848937C35.2119 0.848937 34.8833 1.17488 34.8909 1.62968C34.8986 2.02384 35.2119 2.3422 35.6705 2.32704C36.603 2.3043 37.5354 2.32704 38.5443 2.32704Z" fill="#162C44"/>
<path d="M71.6009 0.856634C71.6009 1.59189 71.6009 2.29684 71.6009 3.0321C71.0201 3.0321 70.485 3.0321 69.9194 3.0321C69.9194 2.32716 69.9194 1.61463 69.9194 0.864214C69.2851 0.864214 68.6736 0.864214 68.0469 0.864214C68.2456 0.348773 68.5895 0.0986328 69.0787 0.0986328C70.378 0.0986328 71.6774 0.0986328 72.9767 0.0986328C73.0837 0.0986328 73.1831 0.0986328 73.2901 0.0986328C73.313 0.121373 73.3283 0.151693 73.3512 0.174433C73.1219 0.401833 72.9308 0.720194 72.6557 0.826314C72.35 0.940014 71.9831 0.856634 71.6009 0.856634Z" fill="#162C44"/>
<path d="M9.56205 29.0161C9.56205 29.8348 9.56205 30.5852 9.5544 31.328C9.5544 31.4038 9.49326 31.5175 9.42447 31.5554C8.60665 32.0178 7.77355 32.465 6.94809 32.9198C6.9328 32.9274 6.90987 32.9122 6.84109 32.9047C6.84109 32.2528 6.86402 31.5933 6.83344 30.9339C6.81816 30.5852 6.92516 30.3881 7.24617 30.2365C8.01813 29.8651 8.75187 29.4482 9.56205 29.0161Z" fill="#162C44"/>
<path d="M20.3076 25.1504C20.3076 25.4839 20.3076 25.7871 20.3076 26.1131C19.421 26.1131 18.5344 26.1131 17.6172 26.1131C17.6172 25.8023 17.6172 25.4839 17.6172 25.1504C18.5114 25.1504 19.3904 25.1504 20.3076 25.1504Z" fill="#162C44"/>
<path d="M35.0137 1.94063C35.2965 1.50099 35.5716 1.22053 36.1066 1.28117C36.6264 1.34181 37.1614 1.29633 37.7041 1.29633C37.3754 1.93305 37.2608 1.98611 36.5882 1.94821C36.0837 1.91789 35.5793 1.94063 35.0137 1.94063Z" fill="#162C44"/>
</g>
<defs>
<clipPath id="clip0_63_19">
<rect width="122" height="54" fill="white"/>
</clipPath>
</defs>
</svg>
