<svg width="24" height="20" viewBox="0 0 24 20" fill="none" xmlns="http://www.w3.org/2000/svg">
    <path d="M12.625 5.00002C12.625 4.65484 12.3452 4.37502 12 4.37502C11.6548 4.37502 11.375 4.65484 11.375 5.00002L11.375 10C11.375 10.3452 11.6548 10.625 12 10.625L17 10.625C17.3452 10.625 17.625 10.3452 17.625 10C17.625 9.65484 17.3452 9.37502 17 9.37502H12.625L12.625 5.00002Z" fill="#1F1F1F"/>
    <path fill-rule="evenodd" clip-rule="evenodd" d="M12 1.04169C7.05245 1.04169 3.04167 5.05247 3.04167 10C3.04167 14.9476 7.05245 18.9584 12 18.9584C16.9476 18.9584 20.9583 14.9476 20.9583 10C20.9583 5.05247 16.9476 1.04169 12 1.04169ZM4.29167 10C4.29167 5.74283 7.74281 2.29169 12 2.29169C16.2572 2.29169 19.7083 5.74283 19.7083 10C19.7083 14.2572 16.2572 17.7084 12 17.7084C7.74281 17.7084 4.29167 14.2572 4.29167 10Z" fill="#1F1F1F"/>
</svg>
