<svg width="20" height="20" viewBox="0 0 20 20" fill="none" xmlns="http://www.w3.org/2000/svg">
<path d="M14.0475 13.5377L12.6189 13.5377C10.6126 13.5377 8.95817 11.7327 8.95817 9.998C8.95817 9.65282 8.67835 9.373 8.33317 9.373C7.98799 9.373 7.70817 9.65282 7.70817 9.998C7.70817 12.4162 9.91536 14.7877 12.6189 14.7877L14.0475 14.7877C16.7426 14.7877 18.9582 12.66 18.9582 9.998C18.9582 7.70473 17.3115 5.80624 15.1344 5.32617C14.7842 5.24894 14.4203 5.20831 14.0475 5.20831C13.7023 5.20831 13.4225 5.48814 13.4225 5.83331C13.4225 6.17849 13.7023 6.45831 14.0475 6.45831C14.3293 6.45831 14.6029 6.489 14.8653 6.54685C16.5053 6.90848 17.7082 8.32725 17.7082 9.998C17.7082 11.9362 16.0862 13.5377 14.0475 13.5377Z" fill="#4773FC"/>
<path d="M5.95222 6.45833L7.38079 6.45832C9.38709 6.45832 11.0415 8.2633 11.0415 9.99801C11.0415 10.3432 11.3213 10.623 11.6665 10.623C12.0117 10.623 12.2915 10.3432 12.2915 9.99801C12.2915 7.57984 10.0843 5.20832 7.38079 5.20832L5.95222 5.20833C3.2571 5.20833 1.0415 7.33599 1.0415 9.99801C1.0415 12.2913 2.68815 14.1898 4.86526 14.6698C5.21551 14.7471 5.57939 14.7877 5.95222 14.7877C6.2974 14.7877 6.57722 14.5079 6.57722 14.1627C6.57722 13.8175 6.2974 13.5377 5.95222 13.5377C5.6704 13.5377 5.39676 13.507 5.13442 13.4492C3.4944 13.0875 2.2915 11.6688 2.2915 9.99801C2.2915 8.05985 3.91346 6.45833 5.95222 6.45833Z" fill="#4773FC"/>
</svg>
