<svg width="63" height="63" viewBox="0 0 63 63" fill="none" xmlns="http://www.w3.org/2000/svg">
<circle cx="31.5" cy="31.5" r="31.5" fill="#F9F9F9"/>
<path fill-rule="evenodd" clip-rule="evenodd" d="M31.5924 24.0407C28.8131 20.8018 24.1689 19.8008 20.6866 22.7667C17.2044 25.7326 16.7141 30.6914 19.4488 34.1993C21.7224 37.1157 28.6033 43.2669 30.8585 45.2578C31.1108 45.4805 31.237 45.5919 31.3842 45.6356C31.5125 45.6737 31.6531 45.6737 31.7816 45.6356C31.9288 45.5919 32.0548 45.4805 32.3072 45.2578C34.5624 43.2669 41.4432 37.1157 43.7169 34.1993C46.4515 30.6914 46.0211 25.7014 42.479 22.7667C38.9369 19.832 34.3716 20.8018 31.5924 24.0407Z" stroke="#8C8C8C" stroke-width="3.0891" stroke-linecap="round" stroke-linejoin="round"/>
</svg>
