<?xml version="1.0" encoding="UTF-8"?>
<svg width="40px" height="40px" viewBox="0 0 40 40" version="1.1" xmlns="http://www.w3.org/2000/svg">
    <title>INN</title>
    <g id="INN" stroke="none" stroke-width="1" fill="none" fill-rule="evenodd">
        <path d="M33,12 L33,33 L7,33 L7,12 L33,12 Z M31,14 L9,14 L9,31 L31,31 L31,14 Z" id="Rectangle" fill="#333333" fill-rule="nonzero"></path>
        <path d="M13,18 L15,18 L15,27 L13,27 L13,18 Z M19,18 L21,18 L21,27 L19,27 L19,18 Z M25,18 L27,18 L27,27 L25,27 L25,18 Z" id="Combined-Shape" fill="#333333"></path>
        <path d="M20,5 L28,10 L12,10 L20,5 Z" id="Triangle" fill="#333333"></path>
    </g>
</svg> 