<svg width="20" height="28" viewBox="0 0 20 28" fill="none" xmlns="http://www.w3.org/2000/svg">
<path d="M9.30604 0.0167885C6.20108 0.230841 3.40166 1.76813 1.6675 4.22C0.610491 5.71058 0.0613421 7.32181 0.00766585 9.08871C-0.0171078 9.87097 0.0117948 10.159 0.189339 10.9101C0.84997 13.7356 3.59572 18.5381 7.73704 24.1269C8.78167 25.5357 9.95842 27.0341 10.0162 27.0224C10.0616 27.0146 10.9122 25.9327 11.7751 24.7885C12.7702 23.4691 12.7413 23.5042 13.6084 22.2782C17.2336 17.1526 19.2981 13.3114 19.905 10.5832C19.9876 10.2135 20 10.0422 20 9.31833C20 8.45434 19.9505 8.04959 19.7688 7.29456C19.5252 6.30214 18.9595 5.0801 18.3319 4.19665C16.7257 1.92769 14.1204 0.405977 11.2673 0.0712776C10.681 0.00122261 9.85106 -0.0182381 9.30604 0.0167885ZM11.0815 1.14932C11.5811 1.20381 12.2871 1.3517 12.8239 1.51905C13.3689 1.6864 14.3846 2.15342 14.8595 2.45309C16.8207 3.68292 18.1957 5.57825 18.6746 7.70321C18.9678 9.03033 18.9223 10.0383 18.5095 11.3616C17.6093 14.2221 14.7645 18.9429 10.6727 24.3604C10.3341 24.8079 10.0451 25.1932 10.0286 25.2088C9.98732 25.2555 8.58348 23.3874 7.31589 21.5971C3.91364 16.7868 1.88633 13.0895 1.2959 10.6221C1.15964 10.0539 1.11422 9.2366 1.18854 8.57499C1.49821 5.76896 3.31495 3.28595 5.99463 1.99775C7.58014 1.23494 9.26475 0.954727 11.0815 1.14932Z" fill="#8C8C8C"/>
<path d="M11.0815 1.14932C11.5811 1.20381 12.2871 1.3517 12.8239 1.51905C13.3689 1.6864 14.3846 2.15342 14.8595 2.45309C16.8207 3.68292 18.1957 5.57825 18.6746 7.70321C18.9678 9.03033 18.9223 10.0383 18.5095 11.3616C17.6093 14.2221 14.7645 18.9429 10.6727 24.3604C10.3341 24.8079 10.0451 25.1932 10.0286 25.2088C9.98732 25.2555 8.58348 23.3874 7.31589 21.5971C3.91364 16.7868 1.88633 13.0895 1.2959 10.6221C1.15964 10.0539 1.11422 9.2366 1.18854 8.57499C1.49821 5.76896 3.31495 3.28595 5.99463 1.99775C7.58014 1.23494 9.26475 0.954727 11.0815 1.14932Z" fill="#8C8C8C"/>
<path d="M9.61499 5.28544C7.64991 5.46873 6.06716 6.84928 5.73005 8.67442C5.31072 10.9324 6.93459 13.0852 9.33133 13.4557C9.81232 13.5298 10.1412 13.5298 10.6428 13.4557C11.5924 13.3192 12.4228 12.9136 13.0929 12.2584C13.9809 11.3926 14.4003 10.3358 14.3304 9.1541C14.2153 7.17297 12.5421 5.48433 10.5194 5.30494C9.98088 5.25814 9.91921 5.25814 9.61499 5.28544ZM10.7866 6.4593C11.687 6.68159 12.4352 7.25487 12.8422 8.03484C13.1135 8.54962 13.1711 8.79532 13.1711 9.4193C13.1669 9.90678 13.1587 9.97308 13.0395 10.2968C12.6695 11.3185 11.8925 12.0244 10.8195 12.313C10.4084 12.4261 9.65199 12.4339 9.245 12.3325C8.89145 12.2428 8.29535 11.962 8.00346 11.7436C7.51425 11.377 7.08259 10.7452 6.91403 10.1603C6.86059 9.97308 6.84003 9.76638 6.84003 9.3608C6.84003 8.84601 6.84826 8.79532 6.9757 8.44433C7.34569 7.43816 8.15557 6.72059 9.22444 6.4554C9.63966 6.3501 10.3591 6.3501 10.7866 6.4593Z" fill="white"/>
</svg>
