<svg width="24" height="24" viewBox="0 0 24 24" fill="none" xmlns="http://www.w3.org/2000/svg">
<path d="M7.4301 8.38557C7.09076 8.14804 6.62311 8.23056 6.38558 8.5699C6.14804 8.90924 6.23057 9.37689 6.5699 9.61442L11.5699 13.1144C11.8281 13.2952 12.1719 13.2952 12.4301 13.1144L17.4301 9.61442C17.7694 9.37689 17.852 8.90924 17.6144 8.5699C17.3769 8.23056 16.9092 8.14804 16.5699 8.38557L12 11.5845L7.4301 8.38557Z" fill="#1F1F1F"/>
<path fill-rule="evenodd" clip-rule="evenodd" d="M4 4.25C2.48122 4.25 1.25 5.48122 1.25 7V17C1.25 18.5188 2.48122 19.75 4 19.75H20C21.5188 19.75 22.75 18.5188 22.75 17V7C22.75 5.48122 21.5188 4.25 20 4.25H4ZM2.75 7C2.75 6.30964 3.30964 5.75 4 5.75H20C20.6904 5.75 21.25 6.30964 21.25 7V17C21.25 17.6904 20.6904 18.25 20 18.25H4C3.30964 18.25 2.75 17.6904 2.75 17V7Z" fill="#1F1F1F"/>
</svg>
