<svg width="24" height="23" viewBox="0 0 24 23" fill="none" xmlns="http://www.w3.org/2000/svg">
<path d="M22.5039 16.7827L22.3477 16.6187C21.1107 15.3024 20.0769 14.6175 19.1898 14.5274C18.4229 14.4394 17.6812 14.8856 16.8926 15.3449L16.05 15.7881C15.949 15.8306 15.8492 15.865 15.7554 15.8882C15.2626 16.0056 14.0184 16.0744 13.314 15.5321C12.4942 14.9008 11.2224 13.7453 10.2331 12.7356C9.28824 11.6904 8.24964 10.3872 7.7075 9.56669C7.24951 8.8716 7.63297 7.89929 7.88902 7.53909C7.9395 7.46827 8.00562 7.39846 8.07895 7.32966L8.82183 6.75194C8.83265 6.74283 8.83746 6.7317 8.84708 6.72361C8.85429 6.71753 8.86631 6.71956 8.87472 6.7145C9.54549 6.23795 10.2391 5.74725 10.3341 5.11691C10.4458 4.37629 9.8989 3.37464 8.65955 2.05933L8.50809 1.89542C7.74116 1.06779 6.58115 -0.183769 4.91506 0.0226328C4.25993 0.104586 3.67451 0.292776 3.07107 0.611485C3.06506 0.61452 3.06145 0.620591 3.05664 0.623626C3.05184 0.626661 3.04582 0.626661 3.04102 0.629697L2.20076 1.1538C2.19235 1.15784 2.18754 1.16695 2.17912 1.17302C2.17311 1.17808 2.1635 1.17909 2.15628 1.18415C2.05891 1.25295 1.96155 1.32377 1.86538 1.39662C1.0131 2.03606 -0.832095 3.89266 0.426486 7.32662C1.23909 9.54443 2.9148 12.1325 5.2841 14.8259L5.26126 14.8421L6.56793 16.212L6.57875 16.2049C9.1476 18.7627 11.7621 20.7397 14.1579 21.9366C15.7566 22.7359 17.1535 23 18.3027 23C19.8149 23 20.898 22.5427 21.4413 22.2452L21.7827 22.053C21.8212 22.0307 21.8488 21.9994 21.8765 21.971L22.6205 21.4995C22.629 21.4935 22.6338 21.4854 22.6422 21.4793C22.6458 21.4763 22.6518 21.4773 22.6566 21.4742C23.1855 21.0675 23.5522 20.6416 23.807 20.1367C24.4669 18.8426 23.2853 17.6032 22.5039 16.7827ZM22.9235 19.819C22.7251 20.2116 22.4354 20.5454 22.0171 20.8692L20.91 21.5704C19.9074 22.1187 17.7641 22.7966 14.6507 21.2405C12.255 20.0436 9.61761 18.0201 7.02232 15.3884L6.3203 14.6417C3.87646 11.914 2.15749 9.3016 1.34608 7.08784C0.291853 4.20935 1.62015 2.66538 2.5097 1.99863C2.59985 1.92983 2.69001 1.86608 2.77896 1.80234L2.78257 1.79931L3.58917 1.29646C4.07962 1.03542 4.534 0.889722 5.05691 0.822945C6.16529 0.682357 7.06881 1.65806 7.73456 2.37701C7.73958 2.38242 7.74458 2.38783 7.74957 2.39322L7.90585 2.56016C9.29065 4.03027 9.42408 4.7294 9.3808 5.01472C9.33272 5.33141 8.76053 5.73713 8.25565 6.09428L8.18473 6.14487C8.18233 6.1469 8.18112 6.14993 8.17872 6.15195C8.17511 6.15398 8.17151 6.15499 8.1679 6.15701L7.39977 6.75497C7.39496 6.75902 7.39256 6.76408 7.38775 6.76914C7.38294 6.77419 7.37332 6.77622 7.36851 6.78128C7.24951 6.89358 7.14733 7.00589 7.06439 7.12224C6.63284 7.73032 6.22533 8.98694 6.86845 9.95926C7.42982 10.8091 8.49847 12.1518 9.48057 13.2364C10.5072 14.2846 11.8162 15.4744 12.6649 16.127C13.3008 16.6157 14.1855 16.7796 14.9513 16.7796C15.3612 16.7796 15.7374 16.7321 16.0223 16.6643C16.1726 16.6279 16.3276 16.5752 16.4875 16.5095C16.4971 16.5054 16.5019 16.4983 16.5116 16.4933C16.5164 16.4913 16.5236 16.4923 16.5284 16.4892L17.4203 16.0198C17.4492 16.0036 17.4684 15.9823 17.4925 15.9621L17.5033 15.9722C18.0526 15.6515 18.6789 15.2751 19.0708 15.3297C19.4182 15.3652 20.2068 15.6464 21.594 17.1206L21.7538 17.2896L21.7545 17.2903C22.43 17.9995 23.3549 18.9704 22.9235 19.819Z" fill="white"/>
<path d="M22.9235 19.819C22.7251 20.2116 22.4354 20.5454 22.0171 20.8692L20.91 21.5704C19.9074 22.1187 17.7641 22.7966 14.6507 21.2405C12.255 20.0436 9.61761 18.0201 7.02232 15.3884L6.3203 14.6417C3.87646 11.914 2.15749 9.3016 1.34608 7.08784C0.291853 4.20935 1.62015 2.66538 2.5097 1.99863C2.59985 1.92983 2.69001 1.86608 2.77896 1.80234L2.78257 1.79931L3.58917 1.29646C4.07962 1.03542 4.534 0.889722 5.05691 0.822945C6.16529 0.682357 7.06881 1.65806 7.73456 2.37701L7.74957 2.39322L7.90585 2.56016C9.29065 4.03027 9.42408 4.7294 9.3808 5.01472C9.33272 5.33141 8.76053 5.73713 8.25565 6.09428L8.18473 6.14487C8.18233 6.1469 8.18112 6.14993 8.17872 6.15195C8.17511 6.15398 8.17151 6.15499 8.1679 6.15701L7.39977 6.75497C7.39496 6.75902 7.39256 6.76408 7.38775 6.76914C7.38294 6.77419 7.37332 6.77622 7.36851 6.78128C7.24951 6.89358 7.14733 7.00589 7.06439 7.12224C6.63284 7.73032 6.22533 8.98694 6.86845 9.95926C7.42982 10.8091 8.49847 12.1518 9.48057 13.2364C10.5072 14.2846 11.8162 15.4744 12.6649 16.127C13.3008 16.6157 14.1855 16.7796 14.9513 16.7796C15.3612 16.7796 15.7374 16.7321 16.0223 16.6643C16.1726 16.6279 16.3276 16.5752 16.4875 16.5095C16.4971 16.5054 16.5019 16.4983 16.5116 16.4933C16.5164 16.4913 16.5236 16.4923 16.5284 16.4892L17.4203 16.0198C17.4492 16.0036 17.4684 15.9823 17.4925 15.9621L17.5033 15.9722C18.0526 15.6515 18.6789 15.2751 19.0708 15.3297C19.4182 15.3652 20.2068 15.6464 21.594 17.1206L21.7538 17.2896L21.7545 17.2903C22.43 17.9995 23.3549 18.9704 22.9235 19.819Z" fill="white"/>
</svg>
