<svg width="44" height="44" viewBox="0 0 24 24" fill="none" xmlns="http://www.w3.org/2000/svg">
<path fill-rule="evenodd" clip-rule="evenodd" d="M17.1315 18.2209C7.97997 17.6514 6.1334 9.89837 5.78417 6.93118C5.73554 6.49405 5.9944 6.04393 6.39659 5.86627C7.07852 5.76969 8.32352 5.7778 9.13289 5.7778C10.104 5.78067 10.3277 7.02509 10.6111 7.73519C10.7644 8.11142 10.6729 8.56725 10.3863 8.85507L9.31467 9.92709C9.31467 9.92709 9.93179 14.1051 14.0746 14.622L15.1462 13.5499C15.4349 13.2647 15.8881 13.1718 16.2656 13.3202L17.5716 13.8419C17.9532 13.9968 18.2185 14.3871 18.2222 14.799V17.1919C18.2177 17.7651 17.7105 18.2503 17.1315 18.2209ZM13.5026 12.6796L13.8928 12.2892L13.8968 12.2853C14.286 11.9008 14.7785 11.6375 15.3145 11.5275C15.8505 11.4175 16.407 11.4655 16.9162 11.6658L16.9206 11.6675L18.2358 12.1928C18.7513 12.4021 19.1992 12.7622 19.5121 13.2225C19.8251 13.6831 19.9949 14.226 20 14.7828L20 17.199C19.9873 18.7625 18.6231 20.0767 17.0413 19.9964C12.9206 19.7634 9.07238 17.9179 6.69568 14.4876C4.81285 11.7702 4.20987 8.76423 4.01858 7.13898L4.01792 7.13337L4.0173 7.12775C3.83419 5.48193 5.19022 3.99391 6.82641 4.00002L9.13815 4.00003C10.2733 4.00339 11.3202 4.71535 11.7408 5.76969C12.1144 6.70572 12.6187 7.64099 12.4103 8.67897C12.3016 9.22053 12.0358 9.71813 11.6459 10.1096L11.6447 10.1107L11.309 10.4466C11.7104 11.4579 12.4478 12.322 13.5026 12.6796Z" fill="#1F1F1F"/>
</svg>
