<svg width="63" height="63" viewBox="0 0 63 63" fill="none" xmlns="http://www.w3.org/2000/svg">
<circle cx="31.5" cy="31.5" r="31.5" fill="#F9F9F9"/>
<path fill-rule="evenodd" clip-rule="evenodd" d="M34.5387 21.7037C34.5387 19.1059 36.6543 17 39.2638 17C41.8734 17 43.9889 19.1059 43.9889 21.7037C43.9889 24.3015 41.8734 26.4074 39.2638 26.4074C37.9461 26.4074 36.7553 25.8702 35.8992 25.0059L29.3581 29.4594C29.4185 29.76 29.4502 30.0704 29.4502 30.3875C29.4502 31.0155 29.3261 31.6158 29.1011 32.1644L36.2734 36.8767C37.0875 36.2139 38.129 35.8148 39.2638 35.8148C41.8734 35.8148 43.9889 37.9208 43.9889 40.5186C43.9889 43.1163 41.8734 45.2223 39.2638 45.2223C36.6543 45.2223 34.5387 43.1163 34.5387 40.5186C34.5387 39.8382 34.6843 39.1905 34.9461 38.6057L27.8318 33.9315C27.0019 34.6528 25.9148 35.0912 24.7251 35.0912C22.1155 35.0912 20 32.9852 20 30.3875C20 27.7897 22.1155 25.6838 24.7251 25.6838C26.2257 25.6838 27.5615 26.38 28.4264 27.4637L34.7658 23.1474C34.6183 22.6919 34.5387 22.2064 34.5387 21.7037Z" fill="#8C8C8C"/>
</svg>
