<svg width="62" height="45" viewBox="0 0 62 45" fill="none" xmlns="http://www.w3.org/2000/svg">
<path d="M30.0693 13.6995C30.287 13.8082 30.5046 13.9171 30.7223 13.9171C30.9399 13.9171 31.1575 13.8084 31.3752 13.6995L38.9921 8.25886C39.2097 8.04119 39.4273 7.71485 39.4273 7.38839C39.4273 7.06194 39.3185 6.73548 38.9921 6.51793L31.3752 1.07732C30.9399 0.859643 30.3958 0.859643 30.0695 1.07732L22.4526 6.51793C22.2349 6.7356 22.0173 7.06194 22.0173 7.38839C22.0173 7.71485 22.235 8.04131 22.4526 8.25886L30.0693 13.6995ZM30.7223 3.25349L36.4893 7.38839L30.7223 11.5232L24.9552 7.38828L30.7223 3.25349Z" fill="white"/>
<path d="M32.8981 15.0051C32.8981 15.3315 33.1157 15.658 33.3333 15.8756L40.9502 21.3162C41.1679 21.4249 41.3854 21.5338 41.6031 21.5338C41.8208 21.5338 42.0383 21.4251 42.256 21.3162L49.8729 15.8756C50.0906 15.6579 50.3081 15.3315 50.3081 15.0051C50.3081 14.6786 50.1994 14.3522 49.8729 14.1346L42.256 8.69402C41.8208 8.47634 41.2767 8.47634 40.9503 8.69402L33.3334 14.1346C33.1156 14.3523 32.8981 14.6788 32.8981 15.0051ZM41.6031 10.8703L47.3702 15.0052L41.6031 19.1401L35.836 15.0052L41.6031 10.8703Z" fill="white"/>
<path d="M19.1886 21.3162C19.4063 21.4249 19.6238 21.5338 19.8415 21.5338C20.0592 21.5338 20.2768 21.4251 20.4944 21.3162L28.1113 15.8756C28.329 15.6579 28.5466 15.3315 28.5466 15.0051C28.5466 14.6786 28.4378 14.3522 28.1113 14.1346L20.4944 8.69402C20.0592 8.47634 19.5151 8.47634 19.1887 8.69402L11.5718 14.1346C11.3542 14.3523 11.1366 14.6786 11.1366 15.0051C11.1366 15.3315 11.3543 15.658 11.5718 15.8756L19.1886 21.3162ZM19.8414 10.8702L25.6085 15.0051L19.8414 19.14L14.0743 15.0051L19.8414 10.8702Z" fill="white"/>
<path d="M31.3752 16.3115C30.9399 16.0938 30.3958 16.0938 30.0695 16.3115L22.4526 21.7521C22.2349 21.9697 22.0173 22.2961 22.0173 22.6225C22.0173 22.949 22.235 23.2754 22.4526 23.493L30.0695 28.9336C30.2871 29.0424 30.5047 29.1513 30.7224 29.1513C30.9401 29.1513 31.1576 29.0425 31.3753 28.9336L38.9922 23.493C39.2099 23.2753 39.4274 22.949 39.4274 22.6225C39.4274 22.2961 39.3186 21.9696 38.9922 21.7521L31.3752 16.3115ZM30.7223 26.7574L24.9552 22.6225L30.7223 18.4877L36.4893 22.6226L30.7223 26.7574Z" fill="white"/>
<path d="M38.9921 36.9857L31.3752 31.5451C30.9399 31.3274 30.3958 31.3274 30.0695 31.5451L22.4526 36.9857C22.2349 37.2034 22.0173 37.5297 22.0173 37.8562C22.0173 38.1826 22.235 38.5091 22.4526 38.7266L30.0695 44.1672C30.2871 44.276 30.5047 44.3849 30.7224 44.3849C30.9401 44.3849 31.1576 44.2761 31.3753 44.1672L38.9922 38.7266C39.2099 38.509 39.4274 38.1826 39.4274 37.8562C39.4274 37.5297 39.3185 37.2034 38.9921 36.9857ZM30.7223 41.9911L24.9552 37.8562L30.7223 33.7214L36.4893 37.8563L30.7223 41.9911Z" fill="white"/>
<path d="M60.7535 21.7521L53.1366 16.3115C52.7014 16.0938 52.1573 16.0938 51.8309 16.3115L44.214 21.7521C43.9964 21.9697 43.7788 22.2961 43.7788 22.6225C43.7788 22.949 43.9965 23.2754 44.214 23.493L51.8309 28.9336C52.0486 29.0424 52.2662 29.1513 52.4839 29.1513C52.7015 29.1513 52.9191 29.0425 53.1368 28.9336L60.7537 23.493C60.9713 23.2753 61.1889 22.949 61.1889 22.6225C61.1889 22.2961 61.08 21.9697 60.7535 21.7521ZM52.4837 26.7574L46.7167 22.6225L52.4837 18.4876L58.2508 22.6225L52.4837 26.7574Z" fill="white"/>
<path d="M49.8728 29.3683L42.2559 23.9277C41.8207 23.71 41.2765 23.71 40.9502 23.9277L33.3333 29.3683C33.1156 29.5859 32.8981 29.9123 32.8981 30.2387C32.8981 30.5652 33.1157 30.8916 33.3333 31.1092L40.9502 36.5498C41.1679 36.6586 41.3854 36.7675 41.6031 36.7675C41.8208 36.7675 42.0383 36.6587 42.256 36.5498L49.8729 31.1092C50.0906 30.8915 50.3081 30.5652 50.3081 30.2387C50.3081 29.9123 50.1993 29.5859 49.8728 29.3683ZM41.6031 34.3736L35.836 30.2387L41.6031 26.1038L47.3702 30.2387L41.6031 34.3736Z" fill="white"/>
<path d="M17.6646 22.6225C17.6646 22.2961 17.5558 21.9696 17.2294 21.7521L9.61247 16.3115C9.17723 16.0938 8.6331 16.0938 8.30676 16.3115L0.68987 21.7521C0.472193 21.9697 0.254517 22.2962 0.254517 22.6225C0.254517 22.9489 0.472193 23.2754 0.689751 23.493L8.30665 28.9336C8.52432 29.0424 8.74188 29.1513 8.95956 29.1513C9.17723 29.1513 9.39479 29.0425 9.61247 28.9336L17.2294 23.493C17.4469 23.2754 17.6646 22.949 17.6646 22.6225ZM8.95956 26.7574L3.1925 22.6225L8.95956 18.4876L14.7266 22.6225L8.95956 26.7574Z" fill="white"/>
<path d="M28.5466 30.2387C28.5466 29.9123 28.4378 29.5858 28.1113 29.3683L20.4944 23.9277C20.0592 23.71 19.5151 23.71 19.1887 23.9277L11.5718 29.3683C11.3542 29.5859 11.1366 29.9123 11.1366 30.2387C11.1366 30.5652 11.3543 30.8916 11.5718 31.1092L19.1887 36.5498C19.4064 36.6586 19.624 36.7675 19.8416 36.7675C20.0593 36.7675 20.2769 36.6587 20.4945 36.5498L28.1114 31.1092C28.329 30.8916 28.5466 30.5652 28.5466 30.2387ZM19.8415 34.3736L14.0745 30.2387L19.8415 26.1038L25.6086 30.2387L19.8415 34.3736Z" fill="white"/>
</svg>
