<svg width="59" height="59" viewBox="0 0 59 59" fill="none" xmlns="http://www.w3.org/2000/svg">
<path d="M42.083 29.0325C42.4286 28.6869 42.4286 28.1266 42.083 27.781L36.4509 22.1488C36.1053 21.8032 35.5449 21.8032 35.1993 22.1488C34.8537 22.4945 34.8537 23.0548 35.1993 23.4004L40.2057 28.4067L35.1993 33.4131C34.8537 33.7587 34.8537 34.319 35.1993 34.6646C35.5449 35.0103 36.1053 35.0103 36.4509 34.6646L42.083 29.0325ZM15.354 29.2917L41.4572 29.2917L41.4572 27.5217L15.354 27.5217L15.354 29.2917Z" fill="white"/>
<rect x="57.4631" y="57.4636" width="56.5784" height="56.5784" rx="28.2892" transform="rotate(-180 57.4631 57.4636)" stroke="white" stroke-width="1.77"/>
</svg>
