<?xml version="1.0" encoding="UTF-8"?>
<svg width="40px" height="40px" viewBox="0 0 40 40" version="1.1" xmlns="http://www.w3.org/2000/svg">
    <title>SNILS</title>
    <g id="SNILS" stroke="none" stroke-width="1" fill="none" fill-rule="evenodd">
        <path d="M30,5 C31.6568,5 33,6.34315 33,8 L33,32 C33,33.6569 31.6568,35 30,35 L10,35 C8.34315,35 7,33.6569 7,32 L7,8 C7,6.34315 8.34315,5 10,5 L30,5 Z M30,7 L10,7 C9.44772,7 9,7.44772 9,8 L9,32 C9,32.5523 9.44772,33 10,33 L30,33 C30.5523,33 31,32.5523 31,32 L31,8 C31,7.44772 30.5523,7 30,7 Z" id="Rectangle" fill="#333333" fill-rule="nonzero"></path>
        <path d="M15,15 L25,15 C25.5523,15 26,15.4477 26,16 L26,16 C26,16.5523 25.5523,17 25,17 L15,17 C14.4477,17 14,16.5523 14,16 L14,16 C14,15.4477 14.4477,15 15,15 Z" id="Rectangle" fill="#333333"></path>
        <path d="M15,20 L25,20 C25.5523,20 26,20.4477 26,21 L26,21 C26,21.5523 25.5523,22 25,22 L15,22 C14.4477,22 14,21.5523 14,21 L14,21 C14,20.4477 14.4477,20 15,20 Z" id="Rectangle-Copy" fill="#333333"></path>
        <path d="M15,25 L25,25 C25.5523,25 26,25.4477 26,26 L26,26 C26,26.5523 25.5523,27 25,27 L15,27 C14.4477,27 14,26.5523 14,26 L14,26 C14,25.4477 14.4477,25 15,25 Z" id="Rectangle-Copy-2" fill="#333333"></path>
    </g>
</svg> 