<svg width="20" height="20" viewBox="0 0 20 20" fill="none" xmlns="http://www.w3.org/2000/svg">
<path d="M9.99984 1.66669C5.39984 1.66669 1.6665 5.40002 1.6665 10C1.6665 14.6 5.39984 18.3334 9.99984 18.3334C14.5998 18.3334 18.3332 14.6 18.3332 10C18.3332 5.40002 14.5998 1.66669 9.99984 1.66669ZM13.8665 7.33335C13.7415 8.65002 13.1998 11.85 12.9248 13.325C12.8082 13.95 12.5748 14.1584 12.3582 14.1834C11.8748 14.225 11.5082 13.8667 11.0415 13.5584C10.3082 13.075 9.8915 12.775 9.18317 12.3084C8.35817 11.7667 8.8915 11.4667 9.3665 10.9834C9.4915 10.8584 11.6248 8.91669 11.6665 8.74169C11.6723 8.71518 11.6715 8.68766 11.6643 8.66152C11.657 8.63538 11.6435 8.61141 11.6248 8.59169C11.5748 8.55002 11.5082 8.56669 11.4498 8.57502C11.3748 8.59169 10.2082 9.36669 7.93317 10.9C7.59984 11.125 7.29984 11.2417 7.03317 11.2334C6.73317 11.225 6.1665 11.0667 5.7415 10.925C5.2165 10.7584 4.80817 10.6667 4.8415 10.375C4.85817 10.225 5.0665 10.075 5.45817 9.91669C7.8915 8.85835 9.50817 8.15835 10.3165 7.82502C12.6332 6.85835 13.1082 6.69169 13.4248 6.69169C13.4915 6.69169 13.6498 6.70835 13.7498 6.79169C13.8332 6.85835 13.8582 6.95002 13.8665 7.01669C13.8582 7.06669 13.8748 7.21669 13.8665 7.33335Z" fill="#4773FC"/>
</svg>
