<svg width="28" height="25" viewBox="0 0 28 25" fill="none" xmlns="http://www.w3.org/2000/svg">
<path d="M20.4049 7.96389C21.2636 7.03502 22.1161 4.86764 18.5381 7.49946C13.4541 11.294 8.44325 14.8564 8.44325 14.8564C7.92745 15.1087 7.36982 15.2456 6.80387 15.2589C6.23792 15.2722 5.67532 15.1616 5.14987 14.9338C3.00303 14.2372 0.496822 13.3083 0.496822 13.3083C0.496822 13.3083 -1.21443 12.1455 1.71492 10.907C1.71492 10.907 14.0997 5.40949 18.395 3.47265C20.0409 2.69859 25.6242 0.221587 25.6242 0.221587C25.6242 0.221587 28.202 -0.863783 27.9873 1.76971C27.9157 2.8534 27.3432 6.64967 26.7708 10.7522C25.9105 16.5594 24.9802 22.91 24.9802 22.91C24.9802 22.91 24.837 24.6904 23.6205 25C22.3182 24.9762 21.0599 24.4862 20.0424 23.6067C19.7562 23.3745 14.6738 19.8895 12.8116 18.1866C12.6222 18.0478 12.4683 17.8594 12.3643 17.639C12.2602 17.4186 12.2094 17.1733 12.2165 16.9259C12.2237 16.6786 12.2885 16.4372 12.4051 16.2242C12.5217 16.0112 12.6861 15.8336 12.8832 15.7079C15.4656 13.1535 18.5443 9.97814 20.4049 7.96389Z" fill="white"/>
</svg>
