<svg width="31" height="24" viewBox="0 0 31 24" fill="none" xmlns="http://www.w3.org/2000/svg">
<path d="M15.1128 23.8856H16.9689C16.9689 23.8856 17.5282 23.8031 17.8137 23.387C18.0849 22.999 18.0849 22.281 18.0849 22.281C18.0849 22.281 18.0449 18.8982 19.2074 18.4013C20.3531 17.908 21.8063 21.6666 23.355 23.1114C24.5381 24.2156 25.4281 23.9786 25.4281 23.9786L29.5757 23.9014C29.5757 23.9014 31.7483 23.717 30.7214 21.398C30.6426 21.2137 30.1388 19.6864 27.6588 16.5528C25.06 13.2858 25.4087 13.8124 28.532 8.14912C30.4295 4.69953 31.2058 2.59116 30.9539 1.69584C30.7395 0.853195 29.3264 1.0621 29.3264 1.0621L24.6738 1.11652C24.6738 1.11652 24.325 1.0621 24.0731 1.27452C23.8213 1.48342 23.6676 1.96092 23.6676 1.96092C23.6676 1.96092 22.9287 4.64511 21.9419 6.91148C19.8455 11.7023 19.0124 11.9656 18.683 11.6496C17.9028 10.9632 18.103 8.87591 18.103 7.38021C18.103 2.74389 18.6249 0.797019 17.0942 0.296696C16.5905 0.136945 16.2146 0.0333693 14.9178 0.00528122C13.2515 -0.0192959 11.8462 0.0228367 11.0492 0.551248C10.5261 0.907616 10.1192 1.69584 10.353 1.73622C10.663 1.78888 11.3592 1.99252 11.7273 2.67893C12.2117 3.56722 12.191 5.55096 12.191 5.55096C12.191 5.55096 12.4636 11.0212 11.5529 11.7005C10.9136 12.1605 10.0611 11.209 8.20106 6.86233C7.25167 4.65038 6.5335 2.1751 6.5335 2.1751C6.5335 2.1751 6.39788 1.72569 6.14729 1.46236C5.85408 1.1727 5.42783 1.06737 5.42783 1.06737L0.99093 1.12003C0.99093 1.12003 0.332176 1.14812 0.100967 1.54136C-0.113451 1.88368 0.0802998 2.621 0.0802998 2.621C0.0802998 2.621 3.54974 13.6579 7.48418 19.2159C11.0879 24.3104 15.1774 23.9821 15.1774 23.9821L15.1128 23.8856Z" fill="black"/>
</svg>
