<svg width="30" height="30" viewBox="0 0 30 30" fill="none" xmlns="http://www.w3.org/2000/svg">
<path fill-rule="evenodd" clip-rule="evenodd" d="M6.56276 6.094C6.56276 5.83525 6.35276 5.62524 6.09401 5.62524H2.344C2.08524 5.62524 1.87524 5.83525 1.87524 6.094C1.87524 6.094 1.87384 10.6334 3.66587 15.1723C5.48463 19.7801 9.13105 24.3753 16.4065 24.3753C16.6653 24.3753 16.8753 24.1653 16.8753 23.9066V17.3595C20.3928 17.5915 23.2067 20.4144 23.4242 23.9356C23.4397 24.1826 23.6445 24.3753 23.892 24.3753H27.6566C27.9153 24.3753 28.1253 24.1653 28.1253 23.9066C28.1253 20.2086 26.2592 16.9423 23.4186 15.0003C26.2592 13.0582 28.1253 9.79198 28.1253 6.094C28.1253 5.83525 27.9153 5.62524 27.6566 5.62524H23.892C23.6445 5.62524 23.4397 5.8179 23.4242 6.06493C23.2067 9.58619 20.3928 12.409 16.8753 12.641V6.094C16.8753 5.83525 16.6653 5.62524 16.4065 5.62524H12.6565C12.3978 5.62524 12.1878 5.83525 12.1878 6.094V17.6717C11.4321 17.4111 10.0076 16.7178 8.78792 14.9754C7.56542 13.2289 6.56276 10.4599 6.56276 6.094ZM5.62901 6.56275C5.71901 12.0748 7.39526 15.0893 9.04386 16.7379C10.8129 18.507 12.5904 18.7456 12.5904 18.7456C12.725 18.7648 12.8609 18.7245 12.9636 18.6354C13.0662 18.5468 13.1253 18.4175 13.1253 18.2815V6.56275H15.9378V13.1253C15.9378 13.384 16.1478 13.594 16.4065 13.594C20.4875 13.594 23.8559 10.5195 24.3205 6.56275H27.177C27.0158 9.98979 25.0986 12.9612 22.3062 14.5957C22.1623 14.6796 22.0742 14.8339 22.0742 15.0003C22.0742 15.1667 22.1623 15.3209 22.3062 15.4048C25.0986 17.0393 27.0158 20.0108 27.177 23.4378H24.3205C23.8559 19.4811 20.4875 16.4065 16.4065 16.4065C16.1478 16.4065 15.9378 16.6165 15.9378 16.8753V23.4308C9.46246 23.2372 6.19526 19.0268 4.53775 14.8282C3.15119 11.3154 2.87931 7.8026 2.82587 6.56275H5.62901Z" fill="white"/>
</svg>
