<svg width="30" height="21" viewBox="0 0 30 21" fill="none" xmlns="http://www.w3.org/2000/svg">
<path d="M14.6253 20.8999H16.4216C16.4216 20.8999 16.9628 20.8277 17.2391 20.4636C17.5016 20.1242 17.5016 19.4959 17.5016 19.4959C17.5016 19.4959 17.4628 16.5359 18.5878 16.1012C19.6966 15.6695 21.1028 18.9583 22.6016 20.2225C23.7466 21.1887 24.6078 20.9813 24.6078 20.9813L28.6216 20.9137C28.6216 20.9137 30.7241 20.7524 29.7304 18.7233C29.6541 18.562 29.1666 17.2256 26.7666 14.4837C24.2516 11.625 24.5891 12.0859 27.6116 7.13048C29.4479 4.11209 30.1991 2.26726 29.9554 1.48386C29.7479 0.746545 28.3804 0.929338 28.3804 0.929338L23.8778 0.976956C23.8778 0.976956 23.5403 0.929337 23.2966 1.1152C23.0528 1.29799 22.9041 1.71581 22.9041 1.71581C22.9041 1.71581 22.1891 4.06447 21.2341 6.04755C19.2053 10.2395 18.3991 10.4699 18.0803 10.1934C17.3253 9.59281 17.5191 7.76642 17.5191 6.45768C17.5191 2.4009 18.0241 0.697392 16.5428 0.259609C16.0553 0.119827 15.6915 0.0291982 14.4365 0.00462107C12.824 -0.0168839 11.464 0.0199821 10.6928 0.482342C10.1865 0.794164 9.79277 1.48386 10.019 1.51919C10.319 1.56527 10.9928 1.74346 11.349 2.34407C11.8178 3.12132 11.7978 4.85709 11.7978 4.85709C11.7978 4.85709 12.0615 9.64351 11.1803 10.238C10.5615 10.6404 9.73652 9.80787 7.9365 6.00454C7.01775 4.06908 6.32274 1.90321 6.32274 1.90321C6.32274 1.90321 6.19149 1.50997 5.94899 1.27956C5.66524 1.02611 5.25274 0.933946 5.25274 0.933946L0.958965 0.980028C0.958965 0.980028 0.321461 1.0046 0.0977096 1.34869C-0.109791 1.64822 0.0777095 2.29338 0.0777095 2.29338C0.0777095 2.29338 3.43523 11.9507 7.24275 16.8139C10.7303 21.2716 14.6878 20.9844 14.6878 20.9844L14.6253 20.8999Z" fill="white"/>
</svg>
