<svg width="66" height="50" viewBox="0 0 66 50" fill="none" xmlns="http://www.w3.org/2000/svg">
<path d="M32.7421 14.5776C32.9745 14.7013 33.2069 14.8251 33.4393 14.8251C33.6718 14.8251 33.9041 14.7014 34.1365 14.5776L42.2704 8.39244C42.5029 8.14497 42.7352 7.77398 42.7352 7.40284C42.7352 7.03171 42.619 6.66058 42.2704 6.41325L34.1365 0.22808C33.6718 -0.0193861 33.0907 -0.0193861 32.7422 0.22808L24.6083 6.41325C24.3759 6.66072 24.1436 7.03171 24.1436 7.40284C24.1436 7.77398 24.376 8.14511 24.6083 8.39244L32.7421 14.5776ZM33.4393 2.70207L39.5978 7.40284L33.4393 12.1035L27.2808 7.40271L33.4393 2.70207Z" fill="white"/>
<path d="M35.7629 16.062C35.7629 16.4332 35.9954 16.8043 36.2277 17.0516L44.3616 23.2368C44.594 23.3605 44.8264 23.4843 45.0588 23.4843C45.2913 23.4843 45.5236 23.3606 45.756 23.2368L53.8899 17.0516C54.1224 16.8042 54.3547 16.4332 54.3547 16.062C54.3547 15.6909 54.2385 15.3198 53.8899 15.0724L45.756 8.88726C45.2913 8.63979 44.7102 8.63979 44.3617 8.88726L36.2278 15.0724C35.9953 15.3199 35.7629 15.691 35.7629 16.062ZM45.0588 11.3614L51.2173 16.0622L45.0588 20.7629L38.9003 16.0622L45.0588 11.3614Z" fill="white"/>
<path d="M21.1228 23.2368C21.3553 23.3605 21.5876 23.4843 21.8201 23.4843C22.0525 23.4843 22.2848 23.3606 22.5173 23.2368L30.6512 17.0516C30.8836 16.8042 31.1159 16.4332 31.1159 16.062C31.1159 15.6909 30.9998 15.3198 30.6512 15.0724L22.5173 8.88726C22.0525 8.63979 21.4714 8.63979 21.123 8.88726L12.9891 15.0724C12.7566 15.3199 12.5243 15.6909 12.5243 16.062C12.5243 16.4332 12.7567 16.8043 12.9891 17.0516L21.1228 23.2368ZM21.8199 11.3612L27.9784 16.062L21.8199 20.7628L15.6614 16.062L21.8199 11.3612Z" fill="white"/>
<path d="M34.1365 17.5469C33.6718 17.2995 33.0907 17.2995 32.7422 17.5469L24.6083 23.7321C24.3759 23.9796 24.1436 24.3506 24.1436 24.7217C24.1436 25.0928 24.376 25.464 24.6083 25.7113L32.7422 31.8965C32.9747 32.0201 33.207 32.1439 33.4394 32.1439C33.6719 32.1439 33.9042 32.0203 34.1367 31.8965L42.2706 25.7113C42.503 25.4638 42.7353 25.0928 42.7353 24.7217C42.7353 24.3506 42.6192 23.9794 42.2706 23.7321L34.1365 17.5469ZM33.4393 29.4225L27.2808 24.7217L33.4393 20.0211L39.5978 24.7218L33.4393 29.4225Z" fill="white"/>
<path d="M42.2704 41.0507L34.1365 34.8655C33.6718 34.6181 33.0907 34.6181 32.7422 34.8655L24.6083 41.0507C24.3759 41.2982 24.1436 41.6692 24.1436 42.0403C24.1436 42.4114 24.376 42.7826 24.6083 43.0299L32.7422 49.2151C32.9747 49.3387 33.207 49.4625 33.4394 49.4625C33.6719 49.4625 33.9042 49.3389 34.1367 49.2151L42.2706 43.0299C42.503 42.7824 42.7353 42.4114 42.7353 42.0403C42.7353 41.6692 42.619 41.2982 42.2704 41.0507ZM33.4393 46.7411L27.2808 42.0403L33.4393 37.3397L39.5978 42.0404L33.4393 46.7411Z" fill="white"/>
<path d="M65.5096 23.7321L57.3757 17.5469C56.9109 17.2995 56.3298 17.2995 55.9814 17.5469L47.8475 23.7321C47.615 23.9796 47.3827 24.3506 47.3827 24.7217C47.3827 25.0928 47.6151 25.464 47.8475 25.7113L55.9814 31.8965C56.2138 32.0201 56.4461 32.1439 56.6786 32.1439C56.911 32.1439 57.1434 32.0203 57.3758 31.8965L65.5097 25.7113C65.7421 25.4638 65.9745 25.0928 65.9745 24.7217C65.9745 24.3506 65.8582 23.9796 65.5096 23.7321ZM56.6784 29.4225L50.52 24.7217L56.6784 20.0209L62.8369 24.7217L56.6784 29.4225Z" fill="white"/>
<path d="M53.8898 32.3908L45.7559 26.2056C45.2911 25.9582 44.7101 25.9582 44.3616 26.2056L36.2277 32.3908C35.9953 32.6383 35.7629 33.0092 35.7629 33.3804C35.7629 33.7515 35.9954 34.1226 36.2277 34.37L44.3616 40.5551C44.594 40.6788 44.8264 40.8026 45.0588 40.8026C45.2913 40.8026 45.5236 40.6789 45.756 40.5551L53.8899 34.37C54.1224 34.1225 54.3547 33.7515 54.3547 33.3804C54.3547 33.0092 54.2384 32.6383 53.8898 32.3908ZM45.0588 38.0812L38.9003 33.3804L45.0588 28.6796L51.2173 33.3804L45.0588 38.0812Z" fill="white"/>
<path d="M19.4953 24.7217C19.4953 24.3506 19.3792 23.9794 19.0306 23.7321L10.8967 17.5469C10.4319 17.2995 9.85083 17.2995 9.50235 17.5469L1.36847 23.7321C1.13602 23.9796 0.903564 24.3507 0.903564 24.7217C0.903564 25.0927 1.13602 25.464 1.36834 25.7113L9.50222 31.8965C9.73467 32.0201 9.967 32.1439 10.1994 32.1439C10.4319 32.1439 10.6642 32.0203 10.8967 31.8965L19.0306 25.7113C19.2629 25.464 19.4953 25.0928 19.4953 24.7217ZM10.1994 29.4225L4.04096 24.7217L10.1994 20.0209L16.3579 24.7217L10.1994 29.4225Z" fill="white"/>
<path d="M31.1159 33.3804C31.1159 33.0092 30.9998 32.6381 30.6512 32.3908L22.5173 26.2056C22.0525 25.9582 21.4714 25.9582 21.123 26.2056L12.9891 32.3908C12.7566 32.6383 12.5243 33.0092 12.5243 33.3804C12.5243 33.7515 12.7567 34.1226 12.9891 34.37L21.123 40.5551C21.3554 40.6788 21.5877 40.8026 21.8202 40.8026C22.0526 40.8026 22.285 40.6789 22.5174 40.5551L30.6513 34.37C30.8836 34.1226 31.1159 33.7515 31.1159 33.3804ZM21.82 38.0812L15.6616 33.3804L21.82 28.6796L27.9785 33.3804L21.82 38.0812Z" fill="white"/>
</svg>
