<svg width="57" height="49" viewBox="0 0 57 49" fill="none" xmlns="http://www.w3.org/2000/svg">
<path d="M48.0731 15.1945C47.836 14.8008 47.5944 14.4055 47.3292 14.0084C46.0411 12.0759 44.4392 10.117 42.5491 8.22777C40.0418 5.72045 37.3865 3.69179 34.8528 2.27175C33.5817 1.56705 32.3369 1.00071 31.1441 0.609616C29.9512 0.226046 28.7932 0 27.6879 0C26.9651 0 26.2595 0.0952006 25.5809 0.330656C24.9101 0.556813 24.2656 0.940273 23.7436 1.46233L21.0007 4.20521L19.552 5.65403C15.747 4.76723 12.1507 4.17975 9.06341 4.17632C7.25149 4.17798 5.60552 4.37602 4.16865 4.88789C2.73777 5.39378 1.48953 6.25933 0.700472 7.54487C0.277936 8.22501 0.0492328 8.99879 0.0517788 9.76737C0.0517788 10.5861 0.298304 11.3727 0.692833 12.0903C1.39001 13.3469 2.52423 14.4539 3.97139 15.5193C6.1454 17.1082 9.0592 18.5885 12.433 19.9174C15.8049 21.2438 19.6319 22.4103 23.6025 23.3175L24.184 20.772V20.7711C18.3174 19.4328 12.7637 17.4968 8.76242 15.3976C6.76354 14.3517 5.15564 13.2585 4.11242 12.2432C3.59037 11.7374 3.21288 11.2535 2.98241 10.8318C2.7495 10.4075 2.66448 10.0606 2.6636 9.76726C2.66703 9.48929 2.73068 9.23413 2.92374 8.91532C3.34971 8.23087 4.0129 7.72155 5.04771 7.3475C6.07555 6.97677 7.44787 6.78637 9.06341 6.78803C11.4194 6.78548 14.2779 7.18854 17.3642 7.84243L15.8907 9.31583L10.7621 14.4436C11.8155 14.957 12.9735 15.4537 14.2013 15.9324L22.917 7.21654C23.2367 8.82521 23.9356 10.5512 24.9389 12.3545C26.3366 14.85 28.3356 17.4745 30.8207 19.9607C33.3068 22.4459 35.9315 24.444 38.4269 25.8427C40.2431 26.8536 41.9801 27.5567 43.599 27.873L26.7297 44.6985L26.8257 44.594C26.5562 44.8728 26.1991 45.0905 25.7203 45.2554C25.2502 45.4212 24.6575 45.5173 23.9612 45.5173C22.4028 45.5258 20.3571 45.0123 18.206 43.9589C16.0557 42.9055 13.7923 41.3121 11.711 39.2402C9.61347 37.1418 7.99373 34.8257 6.91386 32.6227C5.82559 30.4197 5.29512 28.3222 5.30353 26.7373C5.30353 26.0494 5.39874 25.4747 5.55615 25.013C5.71256 24.5523 5.92167 24.2121 6.1827 23.951L9.54362 20.5901C8.35073 20.0681 7.23611 19.5281 6.22598 18.9798L3.71866 21.4871C3.03931 22.1665 2.56065 22.9937 2.25623 23.8899C1.95092 24.787 1.82096 25.7358 1.82096 26.7374C1.82096 29.0441 2.52578 31.5778 3.7884 34.1549C5.05103 36.732 6.88752 39.3354 9.25624 41.7034C11.5977 44.0458 14.1493 45.8483 16.6737 47.0845C19.199 48.3208 21.6885 48.9907 23.961 49C24.9711 49 25.9464 48.8606 26.8518 48.5468C27.7573 48.2424 28.6016 47.7459 29.2893 47.0581L44.8949 31.496C44.8881 31.8651 44.8846 32.1728 44.8846 32.4253C44.8846 34.3997 44.6654 38.0182 47.5171 38.0182C48.2949 38.0182 49.4913 37.4699 49.4913 34.7287C49.4913 33.0426 51.2462 33.6175 51.2462 34.6182C51.2462 36.1546 51.2462 36.6307 51.2462 37.5787C51.2462 40.6497 52.2332 41.7474 53.8785 41.7474C55.5237 41.7474 56.7293 40.5408 56.7293 37.6892C56.7293 34.8375 56.7293 28.806 56.7293 24.8573C56.7294 21.38 53.0147 16.798 48.0731 15.1945ZM34.5264 19.8503C33.9023 19.3054 33.2799 18.7272 32.6677 18.1141C30.339 15.7853 28.4769 13.329 27.2186 11.0785C25.9534 8.83462 25.3201 6.77884 25.3303 5.40308C25.3303 5.16076 25.3516 4.94656 25.3839 4.75018L26.2078 3.92625C26.3388 3.80471 26.4867 3.70021 26.7212 3.62183C26.9568 3.53427 27.2791 3.48246 27.6881 3.48246C28.3146 3.48246 29.1334 3.61253 30.0644 3.92625C31.4664 4.37945 33.1211 5.20582 34.8444 6.3469C36.5688 7.4955 38.362 8.96735 40.0861 10.6916C41.3912 11.9925 42.5408 13.3342 43.5211 14.6555C40.5384 14.9131 37.4052 16.4205 34.5264 19.8503Z" fill="white"/>
<path d="M27.1524 24.7471C28.1939 24.7471 29.0382 23.9029 29.0382 22.8612C29.0382 21.8188 28.1939 20.9746 27.1524 20.9746C26.1099 20.9746 25.2656 21.8188 25.2656 22.8612C25.2656 23.9029 26.1099 24.7471 27.1524 24.7471Z" fill="white"/>
</svg>
