<svg width="44" height="50" viewBox="0 0 44 50" fill="none" xmlns="http://www.w3.org/2000/svg">
<path d="M42.0672 9.54938C41.2269 9.54938 40.5461 10.1244 40.5461 10.8337V46.8943H3.07833V2.61162H42.0672C42.9074 2.61162 43.5883 2.03658 43.5883 1.32729C43.5883 0.618004 42.9074 0.0429688 42.0672 0.0429688H1.55723C0.716977 0.0429688 0.0361328 0.618004 0.0361328 1.32729V48.1786C0.0361328 48.8879 0.716977 49.463 1.55723 49.463H42.0672C42.9074 49.463 43.5883 48.8879 43.5883 48.1786V10.8337C43.5883 10.1244 42.9074 9.54938 42.0672 9.54938Z" fill="white"/>
<path d="M10.7414 6.89443C10.7414 6.18514 10.0606 5.61011 9.22032 5.61011C8.38006 5.61011 7.69922 6.18514 7.69922 6.89443V10.8332C7.69922 11.5425 8.38006 12.1175 9.22032 12.1175C10.0606 12.1175 10.7414 11.5425 10.7414 10.8332V6.89443Z" fill="white"/>
<path d="M23.3332 6.89443C23.3332 6.18514 22.6524 5.61011 21.8121 5.61011C20.9719 5.61011 20.291 6.18514 20.291 6.89443V10.8332C20.291 11.5425 20.9719 12.1175 21.8121 12.1175C22.6524 12.1175 23.3332 11.5425 23.3332 10.8332V6.89443Z" fill="white"/>
<path d="M35.9249 6.89443C35.9249 6.18514 35.244 5.61011 34.4038 5.61011C33.5635 5.61011 32.8827 6.18514 32.8827 6.89443V10.8332C32.8827 11.5425 33.5635 12.1175 34.4038 12.1175C35.244 12.1175 35.9249 11.5425 35.9249 10.8332V6.89443Z" fill="white"/>
<path d="M10.7414 28.7208C10.7414 28.0116 10.0606 27.4365 9.22032 27.4365C8.38006 27.4365 7.69922 28.0116 7.69922 28.7208V32.6596C7.69922 33.3689 8.38006 33.9439 9.22032 33.9439C10.0606 33.9439 10.7414 33.3689 10.7414 32.6596V28.7208Z" fill="white"/>
<path d="M23.3332 28.7208C23.3332 28.0116 22.6524 27.4365 21.8121 27.4365C20.9719 27.4365 20.291 28.0116 20.291 28.7208V32.6596C20.291 33.3689 20.9719 33.9439 21.8121 33.9439C22.6524 33.9439 23.3332 33.3689 23.3332 32.6596V28.7208Z" fill="white"/>
<path d="M35.9249 28.7208C35.9249 28.0116 35.244 27.4365 34.4038 27.4365C33.5635 27.4365 32.8827 28.0116 32.8827 28.7208V32.6596C32.8827 33.3689 33.5635 33.9439 34.4038 33.9439C35.244 33.9439 35.9249 33.3689 35.9249 32.6596V28.7208Z" fill="white"/>
<path d="M10.7414 18.2614C10.7414 17.5521 10.0606 16.9771 9.22032 16.9771C8.38006 16.9771 7.69922 17.5521 7.69922 18.2614V22.2C7.69922 22.9093 8.38006 23.4843 9.22032 23.4843C10.0606 23.4843 10.7414 22.9093 10.7414 22.2V18.2614Z" fill="white"/>
<path d="M23.3332 18.2614C23.3332 17.5521 22.6524 16.9771 21.8121 16.9771C20.9719 16.9771 20.291 17.5521 20.291 18.2614V22.2C20.291 22.9093 20.9719 23.4843 21.8121 23.4843C22.6524 23.4843 23.3332 22.9093 23.3332 22.2V18.2614Z" fill="white"/>
<path d="M35.9249 18.2606C35.9249 17.5514 35.244 16.9763 34.4038 16.9763C33.5635 16.9763 32.8827 17.5514 32.8827 18.2606V22.1992C32.8827 22.9085 33.5635 23.4836 34.4038 23.4836C35.244 23.4836 35.9249 22.9085 35.9249 22.1992V18.2606Z" fill="white"/>
<path d="M9.22032 37.6917C8.38006 37.6917 7.69922 38.2667 7.69922 38.976V42.9146C7.69922 43.6239 8.38006 44.1989 9.22032 44.1989C10.0606 44.1989 10.7414 43.6239 10.7414 42.9146V38.976C10.7414 38.2667 10.0606 37.6917 9.22032 37.6917Z" fill="white"/>
<path d="M21.8121 37.6917C20.9719 37.6917 20.291 38.2667 20.291 38.976V42.9146C20.291 43.6239 20.9719 44.1989 21.8121 44.1989C22.6524 44.1989 23.3332 43.6239 23.3332 42.9146V38.976C23.3332 38.2667 22.6524 37.6917 21.8121 37.6917Z" fill="white"/>
<path d="M34.4038 37.6917C33.5635 37.6917 32.8827 38.2667 32.8827 38.976V42.9146C32.8827 43.6239 33.5635 44.1989 34.4038 44.1989C35.244 44.1989 35.9249 43.6239 35.9249 42.9146V38.976C35.9249 38.2667 35.244 37.6917 34.4038 37.6917Z" fill="white"/>
</svg>
